<?xml version="1.0" standalone="no"?>
<!DOCTYPE svg PUBLIC "-//W3C//DTD SVG 20010904//EN"
 "http://www.w3.org/TR/2001/REC-SVG-20010904/DTD/svg10.dtd">
<svg version="1.0" xmlns="http://www.w3.org/2000/svg"
 width="1024.000000pt" height="768.000000pt" viewBox="0 0 1024.000000 768.000000"
 preserveAspectRatio="xMidYMid meet">
<metadata>
Created by potrace 1.16, written by Peter Selinger 2001-2019
</metadata>
<g transform="translate(0.000000,768.000000) scale(0.100000,-0.100000)"
fill="#000000" stroke="none">
<path d="M356 7603 c-9 -129 -7 -126 -50 -92 -20 16 -24 17 -20 4 4 -8 15 -20
25 -26 11 -5 19 -19 19 -30 0 -13 -4 -18 -12 -13 -6 4 -8 3 -5 -3 13 -20 16
-232 3 -237 -7 -3 -7 -5 2 -5 6 -1 12 -9 12 -18 0 -16 -13 -18 -132 -18 -96 0
-132 3 -135 13 -3 6 -19 11 -36 11 -31 -2 -31 -2 -5 -6 35 -5 37 -21 3 -18
-26 3 -30 -2 -17 -22 6 -9 56 -13 172 -15 l165 -3 3 -172 2 -173 -167 -2 -168
-2 158 -3 c124 -3 164 -7 183 -19 27 -18 34 -47 9 -37 -14 5 -15 -5 -9 -73 3
-44 10 -80 15 -82 12 -5 11 -59 -1 -67 -6 -3 -10 -18 -10 -33 0 -39 -14 -55
-47 -56 -23 -1 -29 -5 -25 -18 3 -13 9 -15 21 -8 10 5 27 6 39 3 13 -3 22 -1
22 6 0 6 6 11 14 11 12 0 14 29 13 173 l-2 172 157 1 c87 0 161 3 164 7 4 4
-5 7 -20 7 -15 0 -25 3 -22 8 2 4 -15 7 -40 7 -24 0 -44 -3 -44 -7 0 -5 -18
-8 -40 -8 -22 0 -40 3 -40 8 0 4 -20 7 -44 7 -25 0 -42 -3 -40 -7 3 -4 -11 -7
-31 -6 -20 1 -39 6 -42 11 -3 6 -2 8 3 4 5 -3 8 67 6 170 -3 137 0 178 10 184
22 14 312 11 332 -4 15 -11 17 -30 14 -180 l-3 -167 32 0 32 0 3 153 3 152
123 3 122 3 0 29 0 30 -150 0 c-131 0 -150 2 -159 18 -10 16 -10 16 -11 -1 0
-16 -13 -17 -172 -15 l-173 3 -5 165 c-3 91 -4 171 -2 178 2 6 13 12 23 12 17
0 19 8 19 85 0 77 -2 85 -19 85 -17 0 -20 -10 -25 -77z"/>
<path d="M1080 7600 c-8 -144 0 -410 12 -410 7 0 9 49 7 158 l-4 157 155 3
c85 1 166 0 179 -3 l24 -6 -8 -307 c-4 -169 -7 -317 -6 -330 0 -13 -4 -33 -10
-44 -8 -15 -8 -19 0 -14 6 4 11 2 11 -3 0 -7 -56 -11 -166 -11 -122 0 -163 3
-158 12 4 6 3 8 -4 4 -6 -3 -13 -2 -17 4 -3 5 -11 10 -17 10 -6 0 -1 -11 12
-25 21 -22 20 -29 -2 -26 -3 0 -7 -79 -8 -176 0 -97 -3 -180 -6 -184 -3 -5
-63 -6 -134 -4 -83 3 -130 1 -130 -5 0 -6 -9 -10 -20 -10 -11 0 -20 4 -20 9 0
5 -8 8 -17 6 -10 -2 -21 -4 -24 -4 -3 -1 -6 -78 -7 -173 -1 -94 -5 -175 -10
-180 -5 -5 -82 -9 -172 -9 -123 0 -165 3 -172 13 -4 7 -8 72 -8 143 1 191 3
177 -22 173 -33 -4 -37 -51 -6 -66 l23 -11 -27 0 c-14 -1 -29 5 -31 12 -3 6
-5 -24 -4 -68 l0 -80 7 65 6 65 4 -68 c3 -37 2 -67 -1 -67 -10 0 -21 -32 -14
-39 3 -3 10 1 16 9 7 11 8 7 3 -12 -3 -16 -2 -28 3 -28 5 0 10 -6 10 -14 0
-11 -22 -14 -104 -15 -61 0 -103 3 -103 9 0 6 -16 10 -35 10 -19 0 -35 -4 -35
-10 0 -5 -8 -10 -17 -10 -15 0 -16 2 -3 10 12 7 10 9 -6 8 -16 -2 -21 -8 -20
-24 1 -22 2 -22 170 -21 l170 2 8 -33 c5 -19 8 -96 6 -172 -3 -134 -2 -139 17
-136 19 3 20 12 23 157 2 107 6 155 15 161 6 4 78 8 158 8 118 0 149 3 159 15
7 8 25 15 41 15 l29 0 0 155 0 156 155 -3 c148 -3 154 -2 157 17 3 19 12 20
170 23 188 3 203 -2 193 -61 -3 -18 -2 -66 3 -107 4 -41 5 -92 1 -112 -5 -32
-3 -38 12 -38 17 0 19 13 21 148 l3 147 162 2 c90 1 168 5 174 9 12 7 328 6
340 -2 4 -2 9 3 13 11 4 12 33 15 169 15 113 0 167 -4 175 -12 9 -9 12 -8 12
5 0 9 3 17 8 17 4 0 6 75 4 166 -2 114 0 170 8 178 7 7 67 11 171 12 129 0
162 -3 172 -14 13 -17 18 -133 10 -254 l-6 -78 -131 -2 -131 -2 119 -3 c66 -2
125 -8 132 -14 29 -24 34 3 34 170 0 176 2 183 45 194 19 4 19 5 -1 6 -28 1
-32 30 -27 191 1 68 3 128 3 133 0 4 74 7 165 5 152 -3 165 -2 165 15 0 16 15
17 179 17 154 0 180 -2 185 -16 3 -9 6 -82 6 -163 0 -128 -2 -150 -17 -164
-20 -18 -17 -17 -84 -17 -31 0 -48 -4 -44 -10 4 -6 -29 -10 -91 -10 -85 0 -95
2 -84 15 11 13 10 14 -2 10 -9 -4 -22 0 -30 8 -12 12 -13 -11 -10 -170 3 -133
1 -187 -8 -198 -6 -8 -8 -19 -4 -26 11 -18 4 -322 -8 -336 -8 -10 -52 -13
-163 -13 -85 0 -160 3 -169 6 -14 5 -16 30 -16 172 0 91 -3 162 -6 159 -4 -4
-10 -78 -13 -164 l-6 -158 -170 -3 c-153 -2 -171 -1 -184 15 -12 16 -13 15 -9
-14 3 -18 1 -33 -4 -33 -5 0 -8 -77 -7 -171 l2 -171 -163 1 c-89 0 -171 3
-181 6 -11 4 -19 2 -19 -4 0 -7 -53 -11 -157 -12 -87 0 -152 -3 -145 -6 6 -2
12 -8 12 -13 0 -13 -25 -19 -40 -10 -11 7 -11 11 -1 24 8 9 9 16 4 16 -6 0
-13 69 -16 163 -6 135 -10 164 -24 175 -22 16 -30 15 -30 -2 0 -8 6 -12 13 -9
11 4 13 -14 11 -80 -1 -47 0 -84 3 -82 3 2 3 -22 -1 -53 -4 -37 -2 -60 5 -64
7 -5 6 -8 -3 -8 -8 0 -11 -7 -8 -20 5 -19 1 -20 -101 -18 -78 1 -95 3 -62 8
26 3 -4 5 -72 4 -64 -1 -121 -5 -126 -8 -6 -4 -11 -78 -12 -178 0 -101 -5
-177 -11 -183 -6 -6 -81 -11 -177 -12 -148 -2 -167 -4 -165 -18 1 -13 -5 -15
-23 -11 l-24 6 0 -164 c0 -106 -4 -167 -11 -171 -5 -4 -143 -9 -305 -12 l-294
-4 0 166 0 166 117 -2 117 -1 7 26 c6 22 5 26 -9 22 -9 -2 -151 -8 -315 -11
-321 -8 -418 -25 -139 -25 l169 0 7 -104 c8 -114 -1 -227 -18 -238 -6 -4 -72
-8 -147 -8 -97 0 -140 -4 -147 -12 -8 -10 21 -12 141 -10 84 2 156 7 162 13
11 11 315 12 332 1 17 -10 20 -327 3 -346 -7 -9 -7 -16 -1 -20 5 -4 12 -2 16
3 3 6 47 7 110 4 76 -4 105 -3 105 5 0 8 -31 12 -100 12 -59 0 -100 4 -101 10
-1 6 -1 19 -1 30 0 11 0 83 1 160 l1 140 178 -2 c174 -3 177 -3 180 -25 2 -14
8 -20 18 -16 12 4 14 -12 14 -92 0 -85 -2 -96 -16 -91 -14 5 -16 -2 -12 -63 2
-38 1 -68 -3 -65 -18 10 -79 14 -79 5 0 -17 193 -17 220 0 10 7 1 9 -30 7 -25
-1 -51 2 -58 6 -8 5 -12 50 -11 157 1 144 2 151 23 158 11 5 86 9 165 9 79 1
146 4 149 7 3 3 83 5 178 5 147 0 173 -2 178 -16 3 -9 6 -49 6 -89 0 -41 5
-77 10 -80 6 -3 10 -35 10 -71 0 -41 4 -63 10 -59 6 4 10 63 10 144 0 99 4
142 13 149 15 12 306 16 325 4 10 -7 12 -41 10 -145 -2 -76 0 -137 4 -137 4 0
9 64 10 143 l3 142 165 0 165 0 3 -167 c2 -131 0 -168 -10 -168 -10 0 -12 -38
-10 -171 2 -120 -1 -175 -9 -185 -15 -18 -328 -21 -346 -3 -8 8 -13 8 -17 0
-8 -13 -336 -16 -336 -3 0 4 -76 6 -169 4 l-169 -3 -6 58 c-3 32 -4 108 -3
168 l2 110 50 1 c208 2 285 5 285 12 0 4 -89 8 -198 9 -145 1 -191 -2 -174 -9
16 -8 22 -20 22 -45 0 -20 -4 -32 -10 -28 -6 4 -9 -42 -9 -125 1 -100 -2 -135
-12 -145 -19 -19 -324 -24 -342 -6 -8 8 -11 48 -9 134 2 66 0 139 -4 162 -13
75 -23 4 -22 -143 1 -76 -2 -144 -6 -150 -5 -8 -56 -12 -170 -12 -133 0 -166
3 -176 15 -7 8 -16 15 -20 15 -14 0 -20 -32 -9 -46 9 -11 7 -14 -9 -14 -20 0
-21 -6 -24 -165 -3 -139 -1 -165 12 -169 8 -2 -137 -4 -322 -5 -212 -1 -339
-5 -343 -11 -4 -7 53 -10 163 -10 l170 0 7 -112 c4 -62 5 -138 3 -168 l-3 -55
-162 -3 c-98 -1 -163 -6 -163 -12 0 -6 63 -10 160 -10 144 0 161 -2 168 -17
11 -28 8 -311 -3 -322 -6 -6 -68 -12 -143 -13 -73 -1 -138 -6 -145 -10 -6 -5
127 -6 298 -3 216 4 315 3 325 -5 13 -9 13 -12 -2 -21 -16 -9 -18 -28 -18
-173 0 -177 0 -176 -56 -176 -14 0 -23 -4 -20 -8 3 -5 27 -5 53 0 128 25 437
36 449 17 12 -20 4 -343 -9 -351 -7 -5 -86 -7 -177 -5 l-165 2 -3 168 c-1 106
-6 166 -12 162 -6 -3 -10 -17 -10 -30 0 -13 -4 -26 -8 -29 -5 -3 -5 -29 -1
-58 10 -72 11 -140 1 -134 -4 2 -6 -11 -4 -30 8 -68 11 -67 -308 -62 -157 2
-236 3 -176 1 108 -4 148 -15 126 -37 -17 -17 -13 -76 6 -76 12 0 15 9 13 40
-2 21 -1 42 2 44 3 3 84 7 180 8 l174 3 0 -27 c0 -14 3 -30 7 -34 5 -4 8 9 8
28 0 21 6 38 13 41 8 3 87 6 176 6 l161 2 -2 -178 -3 -178 -170 0 -170 0 -5
125 c-6 149 -18 140 -22 -17 -3 -105 -2 -112 17 -117 11 -3 96 -6 188 -6 155
0 168 -1 165 -18 -2 -9 -13 -21 -26 -27 -21 -10 -22 -13 -22 -173 l0 -162 25
6 25 6 0 -176 c0 -97 3 -176 8 -176 4 0 8 75 10 168 2 92 7 170 11 175 4 4 81
6 172 5 l164 -3 0 -173 c0 -108 4 -172 10 -172 6 0 9 61 7 170 l-3 170 158 0
c87 0 168 3 181 6 l22 6 -2 -173 -3 -174 -170 -5 c-133 -4 -158 -7 -115 -12
30 -4 106 -8 168 -8 83 0 112 -3 112 -12 4 -112 -3 -335 -11 -345 -8 -9 -57
-13 -173 -16 l-161 -3 173 1 c165 0 173 -1 178 -20 2 -11 5 -87 7 -170 l3
-150 2 161 c1 120 6 165 16 180 13 17 28 19 178 19 l163 0 0 -180 0 -180 -175
-5 -175 -6 165 -2 c113 -1 170 -6 178 -14 9 -9 15 -9 24 0 8 8 62 12 175 12
180 0 191 -4 162 -59 -14 -26 -16 -76 -9 -227 2 -39 0 -76 -4 -82 -4 -7 -1
-12 6 -12 11 0 13 -16 12 -67 l-3 -68 11 58 c15 85 23 88 209 85 l154 -3 3
-68 c4 -87 20 -87 24 1 l3 67 165 3 c140 2 167 0 176 -13 10 -14 12 -14 18 0
4 12 23 15 89 15 46 0 87 -4 93 -10 5 -5 45 -10 89 -12 l80 -3 3 -57 c4 -82
22 -72 22 12 l0 71 170 -3 c109 -2 170 1 170 7 0 6 -58 9 -161 7 -112 -2 -165
1 -175 9 -20 17 -20 321 0 338 9 8 65 11 177 9 l164 -3 -3 -25 -2 -25 15 28
16 27 172 -2 172 -3 -2 -252 c-2 -163 1 -253 7 -253 6 0 10 28 10 64 0 49 4
65 16 70 9 3 87 6 175 6 l159 0 2 -72 c1 -57 2 -62 5 -23 7 103 -11 95 186 88
107 -4 175 -10 179 -17 4 -6 9 -36 10 -66 2 -55 2 -55 7 15 l6 70 170 0 170 0
5 -70 6 -70 4 70 5 70 175 0 175 0 5 -70 6 -70 4 70 5 70 170 3 c144 2 172 0
181 -13 10 -14 12 -14 18 0 4 13 32 15 175 15 192 0 181 5 181 -87 0 -31 2
-54 5 -51 3 3 6 116 5 252 l0 246 27 -6 28 -6 -25 14 -25 14 0 179 0 180 170
-4 c94 -2 176 -8 183 -13 9 -8 12 -56 12 -178 0 -91 -3 -169 -6 -173 -3 -3 -5
-80 -4 -171 1 -149 -1 -166 -17 -176 -15 -10 -17 -23 -15 -86 3 -56 7 -74 18
-74 10 0 14 15 14 58 0 31 4 63 8 70 7 9 49 12 178 10 l169 -3 6 -70 5 -70 2
57 c3 94 -8 88 180 88 140 0 168 -3 184 -17 10 -9 18 -12 18 -7 0 5 42 9 92 8
89 -1 90 -1 13 3 -43 2 -85 9 -92 15 -15 12 -19 318 -4 333 5 6 11 21 13 35 2
21 9 26 41 28 34 3 37 1 37 -22 0 -33 31 -35 52 -4 14 21 16 21 38 5 30 -21
50 -22 50 -3 0 16 65 27 79 13 5 -5 12 -4 16 3 5 8 12 7 24 -4 13 -12 54 -15
199 -18 100 -2 178 -1 172 0 -6 2 -8 7 -6 10 2 4 -75 6 -171 4 l-176 -3 -28
27 c-22 21 -31 25 -42 15 -10 -7 -59 -11 -143 -10 -147 0 -173 5 -175 28 -1 9
-4 0 -8 -19 l-6 -35 -170 0 -170 0 -5 157 c-3 86 -8 160 -12 164 -5 4 -8 -68
-8 -159 l0 -167 -170 0 -169 0 -3 173 c-2 94 -1 175 2 179 3 3 75 10 161 13
138 7 157 6 172 -9 9 -10 17 -14 17 -9 0 4 83 7 185 5 124 -2 185 1 185 8 0 7
54 10 163 8 l162 -3 4 -155 4 -155 12 85 c7 49 9 89 4 95 -12 13 -11 75 1 75
6 0 10 11 10 23 0 24 0 24 138 26 75 1 158 -3 184 -7 37 -7 45 -6 41 4 -4 11
-41 14 -173 14 -127 0 -170 3 -179 13 -7 9 -9 63 -4 175 6 154 7 163 27 168
12 2 91 3 176 2 l155 -3 5 -180 6 -180 2 183 2 182 175 0 c110 0 175 4 175 10
0 12 299 14 318 1 10 -6 12 -46 10 -173 -2 -92 0 -164 4 -162 5 3 15 1 24 -4
14 -8 14 -10 -1 -22 -13 -11 -18 -10 -33 4 -15 13 -41 16 -128 16 -60 0 -126
4 -146 9 -33 8 -37 7 -40 -13 -2 -16 -12 -22 -38 -26 l-35 -5 2 -153 2 -152
-138 0 c-76 0 -140 -2 -143 -5 -3 -4 -1 -17 6 -30 10 -22 16 -24 78 -22 54 2
68 5 72 20 3 12 14 17 40 17 29 0 36 -4 36 -20 0 -11 7 -20 15 -20 8 0 15 9
15 19 0 14 7 18 24 17 16 -1 22 -6 18 -16 -4 -12 -2 -13 8 -3 11 10 18 9 34
-5 18 -16 19 -16 13 1 -4 10 -7 33 -8 50 l-1 32 -12 -27 c-17 -39 -36 -17 -36
42 0 39 4 49 25 60 23 12 25 19 25 85 0 109 -5 106 190 103 l165 -3 6 -110 c4
-60 8 -135 10 -165 2 -30 6 19 9 110 l5 165 163 3 c97 1 170 -2 182 -8 10 -5
21 -7 23 -3 3 5 82 7 176 5 l171 -3 0 -174 0 -175 -150 0 c-82 0 -150 -3 -150
-8 0 -4 57 -6 126 -4 171 5 174 4 176 -61 l1 -52 6 55 6 55 155 5 155 6 -152
2 -153 2 0 165 c0 91 1 168 3 173 1 4 11 6 21 4 19 -2 19 -2 0 19 -17 19 -19
37 -19 193 l0 171 150 5 150 6 -152 2 -153 2 -1 138 c-1 75 -5 148 -9 162 -5
15 -8 -41 -9 -137 l-1 -163 -175 0 -175 0 0 175 c0 205 -22 181 177 190 91 4
140 2 154 -6 15 -8 24 -8 32 0 7 7 63 11 151 11 194 0 165 19 -34 22 l-155 3
0 168 0 167 -25 0 c-22 -1 -23 -2 -7 -11 15 -9 17 -28 17 -163 0 -131 -2 -155
-16 -160 -9 -3 -82 -6 -164 -6 -82 0 -150 -4 -152 -9 -3 -11 -290 -23 -325
-14 -23 5 -23 7 -23 179 l0 174 30 -6 c39 -8 38 1 -1 22 l-32 16 6 155 c4 95
10 160 18 169 8 10 41 15 123 16 l111 2 -125 6 -125 5 -3 169 c-2 129 1 171
10 178 7 4 84 8 170 8 140 0 158 -2 166 -17 5 -10 9 -59 8 -110 -1 -50 2 -89
7 -86 4 2 7 51 7 109 0 74 3 104 12 104 6 0 3 6 -8 14 -10 8 -23 11 -29 6 -5
-4 -161 -11 -345 -15 -331 -7 -335 -7 -354 14 -17 18 -18 34 -14 173 2 84 8
159 12 167 7 11 65 13 355 6 190 -4 349 -9 353 -11 5 -3 8 0 8 5 0 7 48 11
139 11 83 0 142 4 146 10 3 6 14 10 23 9 12 0 13 -2 4 -6 -10 -4 -7 -9 8 -17
13 -6 22 -14 21 -18 0 -5 -1 -80 -1 -168 l0 -160 -125 0 c-69 0 -125 -3 -125
-7 0 -5 68 -8 150 -8 83 0 143 2 133 6 -15 5 -17 22 -14 175 1 93 5 172 7 176
3 5 75 8 161 8 86 0 154 2 152 5 -3 2 -71 5 -152 6 -112 0 -149 4 -158 15 -8
10 -9 55 -3 171 l9 158 153 3 c202 3 204 22 2 22 l-150 0 0 173 0 172 150 -3
c101 -3 150 0 150 7 0 7 -49 11 -137 13 l-138 3 -2 165 c-2 91 1 171 5 178 6
9 52 16 143 21 94 6 42 7 -173 3 -235 -4 -314 -2 -337 8 l-31 12 0 142 c0 77
-5 148 -10 156 -7 10 -10 -36 -9 -144 1 -123 -2 -161 -13 -167 -7 -5 -81 -9
-164 -9 -114 0 -155 3 -170 14 -17 13 -19 28 -19 175 0 91 4 161 9 161 5 0 6
3 2 7 -4 4 -82 8 -174 9 -92 1 -172 2 -179 3 -7 1 -14 22 -16 54 l-4 52 1 -58
1 -58 -530 2 c-291 1 -538 4 -548 6 -15 4 -17 21 -17 178 0 148 2 174 16 179
9 3 80 6 159 6 79 0 150 -3 159 -6 14 -5 16 -30 18 -163 l2 -156 6 155 c3 85
9 161 14 169 7 11 5 13 -7 8 -10 -3 -17 -3 -17 1 0 4 -156 7 -348 7 -283 0
-350 3 -364 14 -16 12 -18 34 -18 171 0 101 4 160 11 167 8 8 6 14 -7 21 -18
9 -18 19 -11 163 5 85 10 160 13 167 2 9 47 12 179 12 155 0 175 -2 175 -16 0
-13 3 -14 14 -5 9 8 65 11 177 9 l164 -3 3 -159 c2 -100 -1 -163 -8 -171 -8
-9 -6 -14 5 -19 8 -3 15 -11 15 -18 0 -10 37 -13 162 -13 l163 0 0 -167 c0
-160 1 -167 20 -170 19 -3 20 -13 25 -173 l5 -170 5 170 c3 94 8 169 13 168 4
-2 84 -3 177 -3 l170 0 0 -82 c0 -45 3 -78 7 -75 3 4 5 37 4 73 -1 39 2 71 10
80 9 11 44 14 170 14 94 0 160 -4 164 -10 4 -6 74 -10 176 -10 l170 0 -3 -170
c-3 -163 -2 -169 18 -179 29 -13 50 1 29 19 -14 11 -15 34 -9 169 4 105 11
161 20 171 11 13 -7 15 -158 12 -93 -2 -181 -1 -194 2 l-24 6 0 175 c0 133 3
175 13 176 6 0 3 4 -8 9 -11 5 -93 9 -181 9 -128 1 -164 4 -173 15 -9 11 -11
63 -9 179 2 91 -1 163 -5 160 -4 -3 -14 0 -21 6 -7 6 -78 12 -172 13 l-159 3
-3 173 c-2 147 0 173 13 178 8 4 77 10 152 14 l138 8 -152 -3 c-90 -1 -153 1
-153 7 0 5 -72 8 -174 6 -143 -2 -173 -1 -168 11 4 10 -1 11 -18 6 l-23 -7 8
150 c4 83 4 165 0 181 -6 26 -9 29 -25 21 -10 -6 -85 -10 -167 -10 -170 1
-186 6 -188 67 0 21 -3 92 -5 158 l-4 120 -6 -175 -5 -175 -37 -3 c-21 -2 -38
-6 -38 -10 0 -4 -9 -8 -20 -8 -11 0 -20 5 -20 11 0 5 -5 3 -10 -5 -6 -9 -10
-10 -10 -3 0 9 -30 13 -102 15 -91 3 -103 5 -102 20 1 10 -2 15 -8 12 -18 -11
-321 -4 -336 8 -10 9 -16 8 -23 -3 -6 -9 -9 12 -9 60 0 95 -13 83 -20 -17 l-5
-77 -170 0 -170 0 -5 165 -6 165 -2 -155 c-1 -85 -6 -161 -10 -168 -5 -6 -35
-15 -68 -19 -74 -8 -260 -7 -274 2 -6 4 -11 68 -12 163 l-2 157 -6 -157 c-6
-199 5 -188 -184 -181 -117 4 -142 8 -159 23 -19 18 -19 28 -12 342 5 223 11
325 19 330 6 5 79 7 161 5 l150 -2 2 -95 c1 -52 3 -120 4 -150 l2 -55 7 60 c4
33 8 101 9 151 1 65 5 95 15 103 9 8 64 11 172 9 l159 -3 5 -163 c3 -89 8
-162 13 -162 4 0 12 0 18 0 8 0 8 5 -1 15 -19 23 -9 323 11 336 22 14 323 11
337 -3 7 -7 13 -43 14 -82 l1 -71 6 60 6 60 147 3 c118 2 149 0 161 -12 11
-12 14 -42 13 -140 0 -69 2 -126 7 -126 4 0 8 15 8 33 1 17 4 82 8 142 l6 110
168 3 c166 2 168 2 176 -20 5 -13 9 -89 8 -171 -1 -81 1 -147 5 -147 4 0 9 75
10 168 l3 167 159 3 c111 2 163 -1 173 -9 11 -10 13 -41 11 -156 -2 -79 0
-143 5 -143 4 0 7 66 7 148 0 109 4 153 14 167 13 19 24 20 190 17 l176 -3 0
-26 c0 -24 1 -25 13 -10 11 16 30 17 167 15 l155 -3 0 -155 0 -155 25 -5 c20
-4 26 -12 28 -37 l3 -32 142 -3 142 -3 0 -153 c0 -147 1 -152 21 -152 11 0 23
-3 27 -6 3 -4 87 -6 186 -5 178 2 180 2 192 -21 11 -20 13 -21 18 -5 6 16 24
18 166 21 88 1 168 -1 179 -6 12 -7 22 -6 29 1 7 7 68 12 156 13 l146 2 -140
3 c-162 4 -173 6 -154 30 11 13 11 15 1 9 -20 -12 -315 -7 -323 5 -4 8 -13 8
-27 0 -31 -16 -32 -15 -32 38 0 77 -19 71 -22 -6 l-3 -68 -168 -3 c-124 -2
-171 1 -181 10 -11 10 -12 45 -8 168 2 85 9 160 14 167 7 8 53 13 141 16 l132
3 -137 2 -138 2 0 153 c0 83 -4 157 -8 164 -4 6 -6 -57 -4 -141 3 -135 1 -154
-14 -167 -23 -19 -300 -20 -337 0 -26 14 -26 19 -13 273 3 56 1 65 -12 60 -11
-4 -14 -1 -10 9 5 12 -20 14 -158 11 -139 -3 -165 -1 -170 12 -4 10 -15 14
-34 11 -64 -8 -326 -8 -339 0 -10 6 -12 4 -6 -5 5 -9 4 -11 -3 -6 -8 5 -12 57
-13 164 0 86 -3 164 -7 172 -6 12 -36 15 -177 15 l-170 0 4 90 c1 50 0 87 -3
84 -3 -3 -6 -32 -7 -65 -1 -102 14 -94 -186 -94 -170 0 -175 1 -170 20 6 23
-11 27 -19 5 -5 -12 -29 -15 -138 -14 -81 1 -121 4 -106 9 21 7 19 8 -17 9
-23 1 -43 -2 -46 -6 -2 -5 -2 -2 -1 5 2 6 -1 12 -5 12 -5 0 -12 -6 -15 -12 -3
-7 -3 -3 0 10 6 23 -11 31 -19 10 -3 -7 -6 15 -6 50 -1 34 -5 62 -11 62 -6 0
-10 -33 -10 -80 l0 -80 -168 0 c-93 0 -171 3 -175 6 -3 3 -2 17 3 30 6 15 6
24 0 24 -6 0 -10 -4 -10 -10 0 -6 -37 -10 -90 -10 -75 0 -88 -2 -84 -15 4 -8
1 -15 -5 -15 -6 0 -11 4 -11 9 0 4 -34 11 -77 14 -43 3 -79 11 -84 18 -5 8 -9
4 -12 -12 -2 -13 -6 10 -7 51 l-4 75 -5 -80 -6 -80 -172 -3 c-198 -3 -180 -13
-186 103 -3 48 -4 43 -5 -25 -1 -47 3 -92 8 -100 6 -10 10 -11 10 -2 0 9 39
12 159 12 88 0 166 -3 175 -6 14 -5 16 -30 16 -173 0 -91 -4 -172 -8 -179 -7
-9 -48 -12 -173 -10 l-164 3 -2 153 c0 85 -4 156 -7 159 -3 4 -6 -56 -6 -133
0 -76 -4 -144 -8 -151 -5 -8 -60 -13 -184 -15 l-177 -3 0 259 c0 142 -2 261
-5 264 -4 3 -6 -31 -6 -75 0 -65 -3 -82 -16 -87 -31 -12 -319 -7 -332 6 -7 7
-12 42 -12 85 0 45 -4 73 -11 73 -7 0 -8 -30 -4 -92 3 -51 7 -169 8 -263 l2
-170 -179 -3 -179 -2 6 265 c5 167 3 265 -3 265 -5 0 -10 -35 -12 -77 l-3 -78
-172 -3 c-135 -2 -173 0 -174 10 0 7 0 43 1 81 1 42 -3 67 -9 67 -7 0 -11 -26
-11 -66 l0 -66 -30 6 c-19 3 -29 2 -25 -4 3 -6 1 -10 -4 -10 -6 0 -11 5 -11
10 0 6 -54 10 -143 10 -101 0 -147 4 -156 13 -11 10 -13 8 -8 -12 11 -47 -3
-51 -174 -51 -115 0 -160 3 -166 13 -4 6 -11 46 -14 87 l-6 75 -2 -85 c-1 -47
-3 -164 -4 -260 l-2 -175 -169 -3 c-125 -2 -172 1 -184 10 -12 10 -14 10 -8 0
4 -7 4 -21 1 -32 -6 -19 -15 -20 -160 -20 -127 0 -156 3 -170 16 -13 13 -15
40 -13 172 l3 157 168 3 c157 2 167 4 167 22 0 10 4 21 9 24 12 8 14 166 2
166 -6 0 -11 -37 -13 -82 l-3 -83 -170 0 -170 0 -3 83 c-2 47 -7 82 -13 82 -6
0 -9 -30 -8 -76 1 -41 -2 -79 -8 -85 -6 -6 -77 -8 -174 -7 l-164 3 -6 85 -5
85 -2 -72 c-3 -111 10 -103 -176 -103 -113 0 -166 4 -174 12 -7 7 -12 42 -12
87 0 104 -8 85 -11 -26 -2 -51 -6 -90 -11 -87 -4 3 -9 -68 -10 -158 l-3 -163
-165 -2 c-91 -2 -174 -8 -185 -13 -12 -7 -86 -9 -185 -8 l-165 3 0 170 c0 167
0 170 23 180 20 9 22 16 22 92 0 72 -2 83 -17 83 -16 0 -18 -9 -15 -76 3 -53
0 -74 -7 -70 -6 4 -11 2 -11 -3 0 -7 -60 -11 -180 -11 -206 0 -187 -10 -193
105 -3 55 -3 53 -7 -25z m3678 -102 c17 -17 17 -329 0 -346 -18 -18 -322 -17
-336 1 -7 8 -12 77 -13 177 l-1 165 38 6 c75 12 299 10 312 -3z m2211 -6 c10
-17 13 -314 3 -330 -6 -9 -49 -12 -178 -10 l-169 3 0 170 0 170 40 6 c72 12
295 5 304 -9z m738 -2 c5 -20 23 -28 23 -10 0 11 297 14 324 4 14 -5 16 -29
16 -164 0 -87 -3 -165 -6 -174 -5 -14 -30 -16 -175 -16 -149 0 -169 2 -169 16
0 13 -3 14 -15 4 -10 -9 -62 -12 -177 -12 l-163 1 -3 180 -2 180 42 4 c24 2
101 4 171 5 121 2 129 1 134 -18z m-3312 -12 c3 -13 4 -90 3 -173 l-3 -150
-177 -3 -178 -2 0 175 0 175 175 0 c173 0 175 0 180 -22z m2213 -143 c2 -118
-1 -165 -10 -178 -11 -14 -34 -17 -170 -18 -87 0 -162 2 -168 6 -6 4 -10 71
-10 181 l0 174 178 -2 177 -3 3 -160z m732 -9 c0 -140 -3 -176 -15 -186 -8 -6
-19 -9 -25 -5 -5 3 -10 1 -10 -4 0 -7 -39 -11 -111 -11 -66 0 -108 4 -104 9 3
6 -14 11 -37 13 l-43 3 -3 178 -2 177 175 0 175 0 0 -174z m-1852 151 c9 -6
11 -47 8 -174 -3 -91 -7 -167 -9 -169 -9 -9 -217 -15 -270 -7 l-59 8 -2 172
c-2 148 0 173 14 176 31 6 306 1 318 -6z m-2913 -69 c4 -35 5 -102 3 -151 -1
-48 0 -87 4 -87 4 0 9 66 10 148 l3 147 170 0 170 0 3 -167 c2 -145 0 -168
-13 -168 -12 0 -15 -18 -15 -109 0 -100 2 -109 20 -114 15 -4 20 -14 20 -42 0
-32 -3 -37 -19 -32 -14 3 -21 -2 -25 -17 -5 -19 -11 -21 -41 -18 -21 3 -35 0
-35 -7 0 -6 -17 -11 -40 -11 -22 0 -40 5 -40 11 0 6 -33 9 -92 8 -75 -1 -93 1
-103 15 -11 15 -13 15 -18 -4 -5 -19 -13 -20 -169 -20 -114 0 -168 4 -176 12
-9 9 -12 8 -12 -5 0 -16 -15 -17 -172 -15 l-173 3 -3 173 -2 172 170 0 169 0
4 -157 3 -158 2 168 2 167 25 10 25 10 0 143 c0 79 3 147 7 150 3 4 79 7 169
7 l162 0 7 -62z m1452 -23 c0 -38 2 -110 4 -160 l2 -90 -167 -3 -166 -2 0 158
c0 87 3 162 7 166 4 3 77 5 162 4 l156 -3 2 -70z m-2219 -257 c19 -19 17 -332
-2 -347 -14 -12 -274 -15 -315 -4 -16 4 -19 22 -24 175 -3 94 -4 175 -1 180 9
13 328 10 342 -4z m2580 0 c8 -8 12 -62 12 -175 l0 -163 -26 -10 c-14 -6 -60
-10 -102 -10 -50 0 -85 -5 -97 -14 -18 -12 -115 -27 -115 -17 0 2 7 13 17 23
15 17 15 18 -5 18 -12 0 -26 8 -31 18 -8 13 -10 6 -11 -31 0 -30 4 -46 10 -42
6 4 10 -23 10 -75 0 -45 -3 -79 -7 -77 -5 3 -8 -28 -8 -69 0 -40 -5 -78 -10
-83 -11 -11 -332 -17 -343 -6 -4 3 -10 30 -13 58 l-7 52 1 -60 c1 -33 -1 -64
-5 -70 -3 -5 0 -15 7 -22 10 -9 15 -9 17 -1 5 14 336 19 345 5 3 -5 12 2 22
15 13 19 16 50 16 178 l0 155 160 -4 c88 -2 161 -4 161 -5 1 0 5 -153 9 -338
l8 -338 -176 0 c-150 0 -176 2 -181 16 -3 9 -6 67 -6 130 0 84 -3 113 -11 108
-9 -5 -10 -55 -5 -183 16 -376 16 -402 6 -421 -10 -19 -22 -20 -173 -20 -114
0 -167 4 -175 12 -15 15 -17 329 -2 344 5 5 6 15 0 24 -7 11 -10 9 -14 -11 -7
-31 -13 -429 -6 -429 3 0 5 -63 5 -139 0 -77 -3 -137 -6 -135 -4 2 -10 -3 -13
-12 -5 -13 -30 -15 -178 -13 l-173 2 -5 -184 -5 -184 -164 -3 c-91 -1 -168 1
-172 5 -13 14 -15 343 -2 351 6 4 11 14 11 22 -1 8 0 84 0 168 l2 152 160 0
c153 0 160 1 171 22 8 14 11 77 10 188 -2 127 1 169 11 177 10 9 13 52 12 180
-1 92 2 170 6 173 3 3 3 55 -2 115 -5 61 -7 139 -6 175 l3 65 170 -1 169 -1
13 24 c8 16 13 81 15 186 l3 162 165 0 165 0 5 -145 6 -145 2 156 c1 86 5 159
9 162 12 13 328 8 341 -5z m740 0 c9 -9 12 -99 12 -344 0 -293 -2 -333 -16
-338 -9 -3 -89 -6 -180 -6 -189 0 -172 -13 -177 125 -3 71 -4 68 -5 -25 0 -58
-1 -111 -1 -118 -1 -10 -39 -12 -173 -10 l-173 3 -3 165 c-1 90 0 171 3 180 4
8 7 92 8 185 l2 170 168 3 167 2 2 -162 2 -163 3 159 c2 97 8 165 14 173 15
18 329 19 347 1z m740 -176 l2 -172 -177 2 -178 3 -5 160 c-3 88 -4 166 -2
173 3 10 45 12 181 10 l176 -3 3 -173z m-385 131 c3 -5 8 -158 12 -341 l8
-332 -174 2 -174 3 2 328 c1 180 5 332 8 338 7 11 312 13 318 2z m-3305 -325
c17 -17 17 -337 0 -343 -7 -2 -86 -6 -176 -8 -89 -2 -165 -7 -169 -11 -12 -12
-318 -7 -331 6 -17 17 -17 309 0 326 8 8 60 12 169 12 130 0 158 3 163 15 4
12 33 15 169 15 113 0 167 -4 175 -12z m373 -10 c10 -15 10 -310 0 -326 -6 -9
-49 -12 -177 -10 l-169 3 -3 172 c-2 153 -1 172 14 175 42 8 329 -4 335 -14z
m3323 -316 c4 -183 5 -344 2 -357 l-6 -25 -174 0 c-146 0 -175 2 -180 15 -8
21 -7 691 1 699 4 3 84 5 177 4 l171 -3 9 -333z m-4414 148 l5 -175 -175 3
c-147 3 -177 6 -187 20 -14 17 -19 313 -6 326 4 3 86 5 182 4 l176 -3 5 -175z
m5693 -189 c98 0 181 -3 186 -6 5 -2 8 -20 7 -39 -1 -19 2 -32 6 -30 5 3 8 13
8 24 0 15 6 17 40 13 28 -4 40 -2 40 7 0 9 4 9 17 -1 13 -11 17 -11 21 -1 3
10 7 10 18 2 7 -7 19 -8 25 -4 18 11 121 4 136 -8 9 -7 13 -51 13 -154 0 -130
-2 -144 -17 -145 -10 -1 -2 -4 17 -8 l35 -6 3 -178 2 -177 -177 2 -178 3 -3
162 c-2 137 0 164 13 177 9 9 13 16 8 16 -5 0 -14 -5 -20 -11 -9 -9 -10 -6 -6
12 6 21 4 22 -9 11 -12 -9 -58 -12 -179 -10 l-164 3 -5 170 c-3 99 -8 163 -13
153 -5 -9 -6 -78 -3 -154 3 -81 1 -145 -5 -156 -9 -16 -25 -18 -165 -18 -88 0
-164 4 -175 10 -18 10 -19 23 -19 169 0 119 3 161 13 170 15 11 338 21 347 9
3 -3 85 -6 183 -7z m-2015 -166 l-3 -170 -174 -3 c-133 -2 -176 1 -183 10 -8
14 -11 298 -3 320 4 10 45 13 185 13 l180 0 -2 -170z m2803 165 l139 0 0 -164
c0 -103 -4 -167 -10 -171 -16 -10 -333 -6 -343 4 -14 14 -8 324 6 333 7 5 25
6 41 3 16 -3 91 -5 167 -5z m-2450 -175 c1 -88 1 -166 0 -172 -1 -10 -41 -13
-166 -13 -91 0 -165 3 -165 8 -8 140 -10 266 -5 300 l6 42 165 -2 165 -3 0
-160z m1101 -10 c-2 -145 0 -174 13 -185 10 -8 15 -9 15 -1 0 8 52 11 174 11
191 0 185 2 187 -63 1 -24 3 -26 6 -9 4 22 5 23 151 20 l147 -3 3 -157 3 -158
-156 0 c-97 0 -155 4 -155 10 0 6 -67 10 -180 10 l-180 0 -2 163 -2 162 -3
-156 c-3 -117 -7 -160 -17 -168 -9 -8 -65 -11 -172 -9 -150 3 -159 4 -162 23
-3 19 -9 20 -179 17 -136 -2 -178 0 -186 10 -6 9 -7 8 -3 -4 3 -10 1 -18 -4
-18 -12 0 -12 97 -3 428 l6 242 152 -1 c83 0 157 -4 165 -9 12 -7 14 -34 12
-140 -2 -92 0 -130 8 -130 8 0 11 38 10 128 -1 70 -1 135 -1 145 1 17 14 18
179 16 l177 -2 -3 -172z m-1832 -5 c0 -168 0 -170 -22 -175 -13 -3 -88 -4
-168 -3 l-145 3 2 170 c1 94 3 171 3 173 0 1 74 2 165 2 l165 0 0 -170z m3708
-329 c2 -112 -1 -168 -9 -177 -18 -22 -334 -20 -356 2 -14 13 -15 37 -10 171
4 85 9 159 13 164 3 6 78 8 182 7 l177 -3 3 -164z m-5548 -11 c3 -91 1 -171
-4 -177 -6 -10 -50 -13 -161 -13 -85 0 -160 3 -169 6 -13 5 -15 31 -15 174 0
92 2 170 6 174 4 3 81 5 172 4 l166 -3 5 -165z m368 -7 l-3 -178 -170 0 -170
0 -3 165 c-1 90 0 170 2 177 4 10 46 13 176 13 l170 0 -2 -177z m1847 160 c11
-27 5 -316 -6 -329 -7 -8 -6 -14 1 -19 15 -9 14 -327 -2 -343 -18 -18 -332
-17 -347 1 -6 8 -12 75 -14 168 l-3 154 -2 -167 -2 -168 -168 0 c-117 0 -172
4 -180 12 -9 9 -12 9 -13 -3 0 -7 -1 -95 -2 -194 l-2 -180 -169 -3 c-129 -2
-171 1 -178 10 -12 20 -10 336 2 343 8 5 8 11 0 20 -11 14 -6 322 5 334 4 3
48 8 98 12 l92 6 -90 1 -90 2 3 157 c2 87 4 158 5 159 1 1 74 3 162 5 l160 4
2 -173 c1 -96 4 -176 7 -179 13 -13 18 57 14 206 -1 89 1 161 5 161 5 0 6 -4
3 -9 -3 -5 8 -6 27 -2 30 6 133 8 255 3 l52 -2 0 -176 c0 -155 2 -175 15 -164
11 9 12 17 5 30 -11 20 -14 298 -4 324 5 14 31 16 179 16 155 0 174 -2 180
-17z m733 -152 c2 -112 -1 -168 -9 -177 -15 -19 -319 -20 -337 -2 -8 8 -12 57
-12 153 0 99 -4 145 -12 154 -11 10 -9 15 7 27 16 12 53 14 190 12 l170 -3 3
-164z m2210 0 c2 -112 -1 -168 -9 -177 -9 -11 -47 -14 -170 -14 -146 0 -159 1
-169 19 -11 22 -14 323 -3 335 4 3 84 5 177 4 l171 -3 3 -164z m-2588 -39 c0
-86 4 -163 8 -169 6 -9 58 -13 182 -15 l175 -3 1 -168 c1 -92 5 -171 8 -174 3
-4 6 -82 6 -174 0 -123 -3 -170 -12 -176 -15 -9 -270 -15 -309 -7 l-26 6 5 93
c2 51 1 119 -4 151 -8 54 -9 46 -14 -86 l-5 -145 -171 -3 c-131 -2 -174 1
-182 11 -13 15 -19 328 -6 348 5 8 10 158 12 334 1 176 5 326 7 332 5 14 278
23 308 10 15 -7 17 -25 17 -165z m583 -167 l162 -1 0 -169 0 -170 -175 0 -175
0 -3 158 c-1 93 -6 157 -12 157 -11 0 -14 43 -3 53 3 4 15 0 25 -10 15 -14 44
-16 181 -18z m-4252 -16 c10 -16 13 -288 3 -313 -3 -9 -14 -16 -24 -16 -17 0
-18 -13 -20 -165 0 -99 3 -165 9 -165 5 0 12 6 14 13 3 7 6 5 6 -5 1 -10 -6
-18 -14 -18 -8 0 -15 -5 -15 -11 0 -5 5 -7 10 -4 6 3 10 1 10 -4 0 -6 -7 -11
-15 -11 -8 0 -15 4 -15 8 0 4 -15 7 -32 5 -58 -5 -309 -14 -460 -16 -80 -1
-142 -5 -136 -8 18 -11 -11 -21 -29 -10 -12 7 -14 10 -4 11 9 0 10 4 4 13 -6
6 -13 85 -16 174 -5 143 -4 162 11 168 9 3 78 5 155 4 118 -1 140 1 150 16 7
9 21 17 32 19 19 3 20 11 20 157 0 85 3 159 7 164 4 6 72 10 173 9 134 0 168
-3 176 -15z m5152 15 c3 -3 77 -6 165 -7 88 -1 163 -5 166 -8 3 -3 7 -81 8
-172 2 -128 6 -167 16 -167 10 0 13 -39 12 -181 -1 -99 0 -182 2 -184 1 -2 1
-84 -2 -182 l-5 -178 -164 -3 c-112 -2 -168 1 -177 9 -19 15 -20 319 -2 337 8
8 64 13 173 14 l160 2 -165 6 -165 5 -3 178 c-1 114 -6 177 -13 177 -6 0 -8 3
-6 8 3 4 -74 6 -171 4 -135 -2 -177 0 -183 10 -10 15 -11 175 -2 271 l6 67
172 0 c94 0 174 -3 178 -6z m1475 -164 c2 -146 1 -166 -15 -177 -12 -9 -63
-13 -168 -13 -200 0 -189 -11 -180 192 4 84 9 156 12 161 2 4 82 6 176 5 l172
-3 3 -165z m364 9 c2 -89 1 -165 -2 -169 -3 -5 -83 -10 -178 -12 l-172 -3 0
157 c0 86 3 163 6 172 5 14 30 16 175 16 l168 0 3 -161z m-6244 -14 c2 -141 1
-161 -15 -172 -9 -7 -14 -16 -10 -19 3 -3 14 0 24 7 16 13 18 31 18 179 l0
165 164 3 c115 2 168 -1 178 -9 15 -13 15 2 -2 -489 -3 -91 -8 -175 -10 -187
-5 -23 -7 -23 -175 -23 -124 0 -171 3 -177 13 -4 6 -10 84 -13 172 l-6 160 -2
-172 c-2 -172 -2 -173 -24 -173 -13 -1 -80 -3 -150 -5 -75 -3 -138 -1 -154 5
-20 8 -29 8 -35 -1 -5 -8 -51 -10 -164 -7 -86 2 -149 1 -138 -3 17 -6 17 -7 1
-14 -10 -4 -26 -4 -35 -1 -15 6 -15 8 -3 16 10 6 11 13 5 19 -6 6 -9 76 -7
177 3 146 5 167 20 171 15 4 17 22 17 163 0 87 2 161 5 164 3 3 76 7 163 10
l157 6 2 -148 2 -147 3 140 c2 77 5 146 8 153 3 10 44 12 177 10 l173 -3 3
-160z m1302 148 l155 2 5 -163 c3 -90 3 -165 2 -167 -2 -2 -3 -81 -2 -175 0
-111 -3 -177 -10 -185 -8 -9 -8 -15 0 -20 6 -4 10 -68 10 -175 0 -144 -2 -169
-16 -174 -9 -3 -87 -6 -174 -6 -147 0 -160 1 -170 19 -6 11 -10 87 -10 174 0
127 3 157 15 167 11 9 13 16 5 24 -17 17 -13 307 5 332 11 17 15 60 15 194 1
96 5 168 9 162 4 -7 56 -10 161 -9z m2699 -17 c8 -10 11 -60 9 -164 -3 -146
-3 -149 19 -160 13 -6 25 -6 28 -1 7 11 302 9 333 -2 22 -8 22 -12 22 -166 0
-87 -4 -165 -10 -173 -13 -21 -320 -29 -338 -8 -7 9 -13 69 -15 169 l-3 154
-2 -158 c-2 -129 -5 -159 -17 -163 -8 -4 -12 -11 -8 -17 3 -5 1 -7 -5 -3 -5 3
-78 7 -162 9 -121 2 -153 5 -160 17 -13 21 -13 327 0 335 7 5 8 11 1 19 -10
12 -14 303 -5 318 3 4 72 8 153 8 116 0 151 -3 160 -14z m2257 -316 c5 -5 88
-11 184 -12 l175 -3 3 -150 c1 -82 0 -160 -3 -172 l-5 -23 -345 0 c-323 0
-347 2 -364 19 -12 12 -17 29 -15 47 1 16 6 85 9 154 6 96 11 128 23 138 19
15 323 17 338 2z m-4069 -13 c4 -5 9 -80 11 -167 2 -134 0 -161 -14 -174 -13
-13 -41 -16 -160 -16 -81 0 -154 5 -165 10 -18 10 -19 23 -19 179 0 92 3 170
6 174 9 9 331 3 341 -6z m368 -172 l0 -170 -170 0 -170 0 -5 170 c-3 94 -4
172 -3 175 0 3 79 3 175 0 l173 -5 0 -170z m1105 169 c7 -7 10 -67 8 -175 l-3
-164 -175 0 -175 0 -3 165 c-1 90 -1 169 1 175 6 14 332 14 347 -1z m-2575
-169 l0 -170 -164 -3 c-112 -2 -168 1 -177 9 -11 9 -14 48 -14 175 l0 164 178
-2 177 -3 0 -170z m1670 -195 c115 0 165 3 165 11 0 8 5 8 15 -1 8 -7 12 -16
9 -21 -3 -5 -6 -78 -7 -163 -1 -107 -6 -159 -14 -167 -9 -9 -59 -13 -169 -13
-181 -1 -184 0 -176 84 3 32 1 50 -6 50 -7 0 -12 -26 -14 -62 l-3 -63 -158 -3
c-95 -1 -165 2 -177 8 -15 8 -20 23 -23 73 l-3 62 -2 -72 c-2 -64 -4 -72 -19
-66 -15 5 -14 3 2 -10 11 -9 23 -13 27 -9 4 4 86 5 182 2 113 -3 177 -1 179 5
2 6 11 4 21 -4 22 -18 328 -19 334 -1 3 8 8 8 18 -1 17 -14 16 -27 15 165 -1
104 3 164 10 172 9 11 48 14 165 14 l154 0 2 -72 c4 -198 3 -254 -7 -260 -6
-5 -2 -8 8 -8 10 0 22 -10 27 -22 5 -13 9 -18 9 -13 1 6 59 9 158 8 112 -1
160 2 165 10 6 9 8 9 8 -1 0 -7 3 -11 8 -9 4 3 5 -73 2 -169 -4 -139 -2 -175
8 -179 8 -3 89 -4 180 -3 l167 2 -160 6 c-88 3 -166 9 -174 14 -12 7 -13 38
-8 169 4 88 10 164 15 169 5 5 85 7 178 6 l169 -3 3 -164 c2 -115 -1 -168 -9
-178 -9 -10 -9 -17 -1 -25 15 -15 17 -334 2 -343 -6 -4 -8 -9 -6 -13 4 -7
-300 -4 -321 3 -10 3 -14 44 -15 152 l-2 148 -6 -155 c-4 -85 -8 -155 -8 -155
-1 0 -77 1 -169 3 -142 2 -170 6 -180 19 -9 12 -13 64 -13 176 0 93 -4 156 -9
153 -5 -4 -11 0 -13 6 -3 10 -51 14 -174 18 l-169 5 -5 165 c-3 91 -7 158 -8
150 -10 -53 -16 -160 -10 -160 4 0 8 -9 8 -21 0 -11 -4 -18 -8 -15 -5 3 -9 -1
-9 -9 0 -8 4 -12 9 -9 8 5 2 -62 -8 -93 -2 -10 -42 -13 -153 -13 -82 0 -155 2
-163 5 -10 4 -12 33 -10 128 2 67 -1 140 -7 162 -7 31 -9 4 -10 -118 -1 -89 3
-167 9 -177 7 -13 7 -21 0 -25 -6 -4 -9 -68 -8 -168 l2 -162 3 159 c2 97 8
165 14 173 9 10 50 13 165 13 144 0 154 -1 164 -20 7 -13 10 -77 8 -175 -2
-119 0 -155 10 -155 14 0 16 -12 2 -26 -13 -13 -18 -343 -5 -338 6 3 9 64 7
165 -2 112 1 165 9 175 9 11 46 14 170 14 101 0 160 4 164 11 5 7 14 4 27 -8
17 -16 42 -18 182 -20 88 -2 165 -3 169 -3 4 0 8 -82 7 -182 -2 -355 0 -518 8
-518 4 0 6 72 4 161 -2 112 1 165 9 175 9 11 44 14 158 14 94 0 151 4 158 11
8 8 16 8 30 0 10 -6 13 -11 5 -11 -7 0 -10 -5 -7 -10 5 -8 11 -8 19 -1 7 6 84
12 177 14 l164 3 -166 2 c-134 2 -169 5 -179 17 -9 11 -11 55 -8 170 2 85 8
158 12 162 12 12 329 20 341 8 6 -6 76 -8 188 -5 99 3 181 2 183 -1 2 -4 6
-264 4 -331 0 -16 -15 -18 -175 -18 l-175 0 0 148 c0 81 -4 152 -8 159 -4 6
-7 -64 -7 -155 l0 -167 178 3 c112 2 183 0 190 -7 8 -6 76 -9 170 -9 86 1 159
-1 161 -3 3 -3 6 -79 6 -169 2 -130 -1 -165 -12 -168 -9 -2 -10 -1 -1 5 6 4
-61 7 -150 6 -92 -2 -165 -7 -171 -13 -11 -11 -303 -14 -331 -4 -14 6 -15 20
-9 114 4 59 3 129 -2 156 -8 41 -10 22 -14 -111 l-5 -160 -169 -3 c-116 -2
-173 1 -182 9 -11 9 -14 47 -14 170 0 98 -4 159 -10 159 -6 0 -9 -59 -9 -152
0 -84 0 -158 0 -165 -1 -9 -48 -13 -173 -15 -95 -2 -180 -5 -188 -8 -8 -3 -14
0 -13 5 1 6 -59 9 -168 7 l-169 -3 -2 153 -2 153 -6 -155 -5 -155 -183 -1
c-101 -1 -186 -4 -188 -7 -3 -3 -5 -77 -5 -164 1 -87 -2 -163 -7 -170 -9 -15
-318 -21 -333 -6 -6 6 -8 77 -7 174 l3 164 168 3 c92 1 165 6 163 11 -3 5 1
14 9 21 12 10 15 42 15 165 0 114 3 155 13 164 8 6 76 12 173 14 l159 3 -162
2 c-129 2 -164 -1 -176 -12 -9 -10 -18 -11 -24 -5 -11 11 -325 15 -342 4 -15
-8 -15 -331 -1 -340 29 -18 -18 -24 -180 -22 -99 1 -180 -1 -180 -5 0 -4 78
-9 173 -10 l172 -3 5 -170 c3 -93 2 -174 -2 -179 -5 -6 -8 -6 -8 0 0 5 -68 7
-176 4 -97 -3 -178 -2 -181 3 -2 4 -8 5 -12 3 -4 -3 -86 -6 -182 -6 -129 -1
-174 1 -177 10 -3 7 -1 10 4 7 5 -3 9 68 9 161 l0 167 169 3 c129 2 172 -1
178 -10 4 -7 8 -80 7 -161 0 -82 2 -151 5 -155 4 -3 5 73 4 169 l-3 174 -182
1 c-100 1 -186 5 -192 8 -5 4 -12 2 -16 -4 -4 -6 -70 -10 -170 -10 -152 0
-165 1 -175 19 -6 11 -10 87 -10 176 0 130 2 157 15 161 12 5 13 10 4 20 -13
15 -9 17 15 8 9 -3 14 -9 12 -13 -2 -3 69 -6 157 -6 l162 0 3 -165 c1 -103 7
-168 13 -175 8 -7 10 38 6 165 -3 118 -9 176 -16 178 -8 3 -9 8 -2 16 12 14
20 346 9 346 -5 0 -8 5 -8 11 0 7 8 9 23 4 32 -10 330 -5 344 6 7 7 14 6 18
-1 4 -6 65 -9 173 -8 l167 2 -165 3 c-116 3 -166 7 -172 16 -13 21 -10 301 4
315 8 8 60 12 169 12 116 0 158 3 162 13 3 9 -33 12 -163 12 -93 0 -166 -3
-164 -6 2 -4 -3 -12 -10 -18 -18 -15 -34 5 -17 22 7 7 11 60 11 146 0 74 -2
132 -5 129 -3 -2 -5 -58 -6 -124 0 -65 -3 -127 -6 -136 -4 -16 -21 -18 -168
-18 -106 0 -166 4 -170 11 -4 6 -7 61 -7 122 0 62 -3 128 -8 147 -5 24 -8 -11
-9 -111 -1 -113 -4 -149 -15 -158 -10 -8 -62 -11 -170 -9 -86 2 -156 2 -156 1
0 -1 -2 -7 -5 -15 -8 -20 321 -13 342 8 8 8 19 11 25 8 7 -5 5 -11 -5 -19 -15
-10 -17 -35 -17 -172 0 -110 -4 -163 -12 -171 -8 -8 -59 -12 -163 -12 -83 0
-155 -4 -160 -9 -6 -6 -17 -4 -29 5 -17 12 -18 14 -3 14 15 0 17 14 17 118 0
64 -3 141 -6 170 -13 102 -24 49 -24 -112 0 -122 -3 -166 -13 -174 -10 -9
-282 -18 -332 -12 -26 4 -339 -2 -350 -6 -6 -3 -12 1 -12 8 0 7 -2 18 -3 23
-1 6 -2 86 -1 178 1 161 2 168 20 162 11 -3 22 -2 25 3 3 6 -2 9 -12 8 -15 -1
-17 15 -20 172 l-2 172 167 -2 168 -3 0 -170 c0 -146 -2 -170 -15 -167 -11 3
-12 0 -4 -8 6 -6 17 -8 25 -5 11 4 13 36 11 180 l-3 175 63 0 c35 0 111 3 169
6 77 5 108 3 114 -6 5 -8 12 -5 22 10 13 18 15 52 12 193 l-4 172 164 3 c117
2 168 -1 178 -10 11 -9 16 -9 23 2 5 8 13 11 17 6 4 -4 1 -13 -7 -19 -12 -10
-15 -39 -12 -166 1 -104 -1 -158 -9 -167 -12 -15 -2 -18 18 -6 9 6 12 47 11
153 -1 79 2 153 5 164 6 19 15 20 164 20 l158 0 5 -75 5 -75 5 69 c3 37 2 73
-2 79 -4 6 -4 15 -1 20 3 4 86 7 186 6 139 -1 182 1 185 11 3 9 7 8 14 -4 8
-14 31 -16 173 -16z m-2037 -167 l2 -173 -175 0 c-129 0 -175 3 -175 12 0 6
-6 4 -13 -5 -11 -16 -31 -17 -177 -15 l-165 3 -3 159 c-1 88 1 163 6 168 7 7
171 11 322 8 13 0 15 -20 14 -127 l-2 -128 8 129 c6 89 13 132 22 137 7 5 85
8 173 6 l160 -2 3 -172z m356 169 c3 -5 6 -85 7 -178 l1 -169 -164 -3 c-144
-2 -164 -1 -175 15 -14 18 -19 323 -6 336 9 10 331 8 337 -1z m2579 2 c15 -5
17 -25 17 -175 l0 -169 -26 -10 c-35 -14 -310 -8 -324 6 -7 7 -11 68 -11 167
0 125 -3 156 -15 161 -8 3 -14 9 -14 15 0 10 347 15 373 5z m1487 -173 c0 -94
-4 -172 -8 -175 -7 -4 -248 -10 -314 -7 l-28 1 0 175 0 175 175 0 175 0 0
-169z m-1110 0 c0 -95 -4 -162 -10 -166 -5 -3 -83 -6 -172 -6 l-163 0 1 23 c1
13 2 87 3 166 l1 142 170 0 170 0 0 -159z m338 -13 l3 -157 -157 -3 c-86 -2
-158 0 -160 4 -10 16 -16 155 -9 233 l7 85 156 -2 157 -3 3 -157z m-3660 -176
c9 -7 12 -50 10 -183 l-3 -174 -170 -3 c-144 -2 -172 0 -181 13 -10 14 -12 14
-18 0 -4 -12 -29 -15 -150 -15 -86 0 -147 -4 -151 -10 -9 -15 -25 -12 -25 5 0
8 -4 15 -9 15 -6 0 -9 72 -8 173 l2 172 178 1 c98 1 181 5 184 8 9 9 326 7
341 -2z m3684 -3 c12 -7 80 -10 177 -10 87 1 165 -1 174 -5 15 -5 17 -25 17
-165 0 -135 -2 -161 -16 -166 -12 -4 -11 -8 8 -18 15 -8 29 -9 42 -2 24 12
322 5 336 -9 5 -5 10 -78 11 -162 0 -91 5 -152 11 -152 6 0 8 61 7 158 l-2
157 169 0 169 0 3 -169 c2 -129 -1 -171 -10 -178 -7 -4 -84 -8 -171 -8 -130 0
-159 3 -163 15 -5 13 -8 13 -21 0 -11 -12 -45 -15 -163 -15 -82 0 -155 3 -164
6 -13 5 -16 26 -17 123 0 64 -4 139 -9 166 -5 36 -8 3 -9 -117 -1 -159 -2
-167 -21 -173 -30 -9 -302 -3 -322 7 -16 8 -18 26 -18 168 0 122 3 162 14 173
12 11 11 15 -3 24 -12 8 -21 7 -32 -1 -11 -8 -65 -9 -175 -6 l-159 5 -3 174
c-2 133 1 176 10 183 20 12 306 10 330 -3z m1428 -19 c24 -6 25 -11 31 -91 l5
-84 2 93 2 94 174 -4 174 -3 1 -159 c1 -106 -2 -163 -10 -172 -9 -11 -6 -14
15 -14 15 0 25 4 21 9 -3 6 -6 83 -7 173 l-2 163 171 0 c94 0 174 -3 177 -6 3
-3 7 -76 8 -163 2 -125 0 -159 -11 -165 -22 -14 97 -23 257 -19 120 2 143 1
147 -12 3 -13 9 -291 6 -328 -1 -10 -39 -13 -173 -12 -95 1 -180 -1 -188 -5
-9 -3 -88 -4 -175 -3 l-160 3 -5 160 -5 160 -5 -155 -5 -155 -174 -3 c-118 -2
-178 1 -187 9 -10 8 -14 51 -17 168 l-3 156 -2 -165 c-2 -145 -4 -166 -19
-175 -11 -6 -81 -8 -178 -5 l-160 5 -8 168 c-7 150 -6 171 8 187 15 17 15 18
-2 16 -14 -1 -19 8 -24 39 -6 38 -6 38 -8 7 -2 -50 -23 -54 -201 -45 l-155 8
-3 154 c-2 98 1 158 8 166 9 10 82 13 332 13 177 -1 333 -4 348 -8z m-710
-165 l0 -165 -155 -1 c-85 -1 -161 -2 -167 -3 -10 -1 -14 40 -16 167 l-3 167
170 0 171 0 0 -165z m-5867 -192 c4 -2 7 -80 7 -173 l0 -170 -24 -6 c-13 -3
-94 -3 -180 0 -86 3 -226 9 -311 12 l-155 5 0 160 0 159 103 1 c143 2 194 6
215 19 16 10 326 4 345 -7z m-735 -5 c8 -8 12 -60 12 -170 0 -147 -1 -158 -20
-168 -12 -6 -80 -9 -177 -8 l-158 3 -3 172 -2 173 162 3 c90 1 165 4 169 5 3
1 10 -3 17 -10z m1106 -4 c12 -31 7 -319 -6 -332 -17 -17 -319 -17 -336 0 -13
13 -18 301 -6 332 5 14 30 16 174 16 144 0 169 -2 174 -16z m374 -157 c2 -151
1 -167 -15 -176 -20 -10 -300 -15 -326 -5 -15 5 -17 26 -17 175 l0 169 168 2
c92 2 172 3 177 2 6 0 11 -65 13 -167z m727 -8 l0 -174 -170 1 c-436 2 -494 4
-500 14 -13 20 -6 313 8 322 6 4 151 8 321 8 170 0 311 2 314 5 22 21 27 -15
27 -176z m3670 175 c-6 -2 -9 -66 -7 -169 l3 -165 -73 -1 c-40 -1 -115 -3
-165 -4 l-93 -3 0 163 c0 155 1 164 20 170 11 3 81 5 155 4 74 -1 138 1 142 4
3 4 11 7 17 6 7 0 7 -2 1 -5z m2806 -4 l159 0 0 -170 0 -170 -32 0 c-18 0 -80
-2 -138 -4 -58 -2 -122 -2 -142 1 l-38 6 0 174 c0 156 2 174 16 169 9 -3 87
-6 175 -6z m-4996 -170 l0 -165 -170 0 -170 0 -3 145 c-1 80 0 155 3 168 5 22
6 22 173 20 l167 -3 0 -165z m1093 9 c2 -125 0 -159 -12 -168 -9 -8 -62 -11
-172 -9 l-159 3 -3 155 c-1 85 0 160 3 167 3 11 41 13 172 11 l168 -3 3 -156z
m-4394 -209 c14 -14 20 -280 7 -313 l-11 -27 -167 2 -168 3 -3 165 c-2 131 0
167 11 175 17 12 318 8 331 -5z m1461 10 c4 -6 11 -8 16 -4 20 12 343 4 351
-9 4 -7 7 -84 5 -172 l-2 -160 -175 0 -175 0 -5 157 c-3 86 -8 160 -12 164 -5
4 -8 -65 -8 -152 0 -111 -4 -164 -12 -172 -13 -13 -333 -18 -341 -4 -7 10
-347 3 -347 -8 0 -5 73 -11 168 -12 l167 -3 3 -150 c2 -82 0 -160 -3 -172 -5
-23 -7 -23 -174 -23 -127 0 -170 3 -172 13 -2 6 -4 87 -4 179 0 105 -4 168
-10 169 -7 0 -7 2 0 5 6 2 9 69 7 179 l-3 176 181 -1 c100 -1 184 1 187 4 11
11 351 7 358 -4z m5925 -3 c14 -3 94 -6 178 -6 l152 -1 0 -169 0 -168 -339 -8
c-321 -7 -341 -6 -366 11 l-26 19 7 155 c5 127 9 157 22 168 13 10 57 12 182
9 91 -3 176 -7 190 -10z m1063 -4 c4 -2 7 -80 7 -173 0 -140 -2 -169 -15 -174
-8 -3 -163 -5 -344 -5 -280 0 -331 2 -341 15 -16 18 -14 308 2 337 10 19 21
19 346 12 186 -4 340 -9 345 -12z m-9205 -170 l-3 -178 -150 -3 c-82 -1 -160
0 -172 3 -23 5 -23 7 -23 175 l0 170 163 3 c89 1 168 4 175 5 10 2 12 -36 10
-175z m377 2 l0 -170 -177 -3 -178 -2 0 168 c0 93 3 172 7 176 4 3 84 5 177 4
l171 -3 0 -170z m1100 0 l0 -170 -330 -3 c-292 -2 -331 0 -342 14 -8 11 -10
60 -7 159 2 79 4 148 4 154 0 11 146 16 485 16 l190 0 0 -170z m1458 169 c15
-5 17 -22 17 -175 l0 -169 -167 -2 -168 -2 170 -6 170 -5 0 -170 c0 -161 -1
-170 -21 -180 -12 -6 -78 -8 -175 -5 l-154 5 -6 165 c-3 98 -2 170 4 178 6 8
5 12 -4 12 -11 0 -11 2 -1 9 10 6 12 43 8 169 -5 146 -4 162 12 171 18 10 284
14 315 5z m390 -26 c11 -41 0 -297 -13 -313 -19 -23 -335 -22 -344 1 -3 9 -6
87 -6 175 l0 159 168 2 c92 2 172 2 179 0 6 -2 13 -12 16 -24z m3678 10 l0
-23 9 21 c8 21 16 22 140 23 72 1 146 -1 166 -5 l34 -6 -2 -167 -3 -166 -178
-2 c-108 -1 -183 -6 -191 -12 -7 -6 -16 -8 -19 -5 -3 3 -66 5 -139 5 -74 -1
-142 1 -151 5 -15 5 -17 26 -17 180 l0 174 175 0 c175 0 175 0 176 -22z
m-3321 -153 c0 -164 0 -165 -22 -166 -139 -3 -294 4 -299 13 -9 14 -12 279 -3
301 5 15 25 17 165 17 l159 0 0 -165z m2190 158 c0 -5 2 -77 4 -161 4 -144 3
-153 -16 -163 -13 -7 -67 -8 -163 -3 l-143 7 -7 47 c-7 50 -5 232 2 263 4 15
20 17 164 17 87 0 159 -3 159 -7z m1830 -152 c3 -84 3 -156 0 -161 -6 -9 -304
-22 -325 -14 -12 5 -15 35 -15 170 l0 164 168 -2 167 -3 5 -154z m-6236 -197
c22 -8 20 -21 -4 -29 -18 -6 -19 -8 -5 -22 9 -8 13 -18 10 -21 -3 -4 -10 0
-15 7 -5 8 -9 -45 -9 -127 -1 -77 2 -143 6 -145 4 -3 7 15 6 39 -1 24 2 44 8
44 5 0 9 -20 9 -45 0 -64 -14 -69 -205 -76 l-160 -6 185 0 185 0 2 -159 c2
-87 -1 -165 -6 -173 -7 -11 -64 -12 -347 -5 l-339 9 0 165 0 165 153 3 c85 1
150 6 147 11 -3 5 -76 10 -162 10 -87 1 -161 5 -165 9 -4 4 -9 79 -11 167 l-3
160 -2 -167 -2 -167 -42 -6 c-77 -11 -299 0 -309 16 -14 22 -11 323 3 337 8 8
148 12 534 12 287 0 529 -3 538 -6z m1114 -168 c2 -116 -1 -173 -9 -182 -9
-11 -49 -14 -179 -14 -91 0 -169 3 -172 6 -3 3 -84 6 -180 7 l-173 2 0 170 0
170 185 5 c102 3 262 6 355 5 l170 0 3 -169z m5367 159 l160 -4 0 -168 0 -168
-175 0 -175 0 -5 160 -6 160 -2 -157 c-1 -98 -6 -159 -13 -163 -12 -8 -315 -8
-327 -1 -5 3 -14 1 -22 -5 -8 -5 -87 -9 -175 -9 -217 1 -208 -8 -200 182 3 79
8 153 11 166 l5 23 382 -6 c210 -3 454 -8 542 -10z m-7575 -170 l0 -175 -149
0 c-127 0 -150 -2 -155 -16 -5 -14 -9 -13 -24 6 -16 20 -26 22 -172 23 l-155
2 -3 163 -3 163 156 -3 c85 -2 155 0 155 5 0 4 79 7 175 7 l175 0 0 -175z
m2940 2 l0 -167 -162 2 -163 3 -3 162 c-2 146 -1 162 15 165 9 2 84 3 165 3
l148 0 0 -168z m1458 163 c10 0 12 -36 10 -162 l-3 -163 -160 0 -160 0 -3 162
c-2 145 -1 162 15 165 13 2 160 2 301 -2z m3710 -156 c2 -129 0 -163 -12 -173
-9 -8 -64 -11 -177 -9 l-164 3 -3 160 c-1 87 0 165 3 172 3 11 42 13 177 11
l173 -3 3 -161z m671 151 c5 -3 10 -75 10 -160 2 -153 2 -154 -21 -160 -13 -2
-162 -6 -333 -7 l-310 -3 -3 170 -2 170 325 -2 c179 -1 329 -5 334 -8z m-5841
-358 c9 -7 12 -51 10 -176 l-3 -166 -172 -3 c-172 -2 -173 -2 -178 20 -3 13
-4 93 -3 178 l3 154 25 7 c37 9 303 -2 318 -14z m-2538 -168 l0 -169 -165 0
c-162 0 -165 0 -170 23 -3 12 -4 87 -3 167 l3 145 155 5 c85 3 161 3 168 1 9
-2 12 -45 12 -172z m1078 -7 l-3 -167 -155 -3 c-85 -1 -165 0 -178 3 -22 5
-22 6 -20 173 l3 167 160 5 c88 3 168 1 178 -3 16 -7 17 -23 15 -175z m220
179 l142 -1 0 -115 c0 -74 4 -115 11 -115 5 0 7 5 4 10 -4 6 -3 56 1 113 l6
102 172 0 c102 0 174 -4 178 -10 13 -18 9 -310 -4 -323 -8 -8 -64 -13 -172
-14 l-161 -2 165 -6 165 -5 6 -35 5 -35 10 35 c10 34 13 35 70 43 32 4 108 6
169 5 107 -3 109 -3 115 -28 6 -25 6 -25 12 -2 6 22 9 22 170 22 111 0 168 -4
176 -12 8 -8 15 -8 25 1 10 8 65 11 183 9 l169 -3 3 -172 c2 -146 0 -173 -13
-187 -9 -9 -12 -16 -6 -16 17 0 15 -309 -1 -315 -7 -2 -123 -7 -258 -10 -135
-4 -285 -11 -335 -15 -82 -6 -75 -7 78 -8 l168 -2 -4 -352 -4 -353 -156 -3
c-141 -2 -157 -1 -164 15 -5 10 -8 25 -7 33 1 8 2 75 3 148 1 130 1 132 24
133 17 1 15 3 -8 8 l-30 6 -6 170 c-4 94 -3 177 2 186 5 10 3 21 -3 27 -7 7
-8 12 -3 12 6 0 10 63 9 153 0 83 1 157 3 162 2 6 68 9 176 8 l172 -2 3 -154
c2 -111 6 -156 15 -160 9 -3 12 34 12 159 0 121 -3 164 -12 164 -7 0 -17 8
-22 18 -6 9 -11 11 -11 5 0 -10 -41 -13 -169 -13 -145 0 -170 2 -175 16 -3 9
-7 77 -8 152 l-2 137 -6 -150 -5 -150 -164 -3 c-112 -2 -168 1 -177 9 -10 8
-15 39 -16 103 l-2 91 -5 -100 -6 -100 -170 0 -170 0 -5 140 c-3 77 -7 127 -8
111 -1 -20 -6 -27 -17 -22 -12 4 -15 -4 -15 -40 0 -37 3 -45 15 -40 12 4 15
-3 15 -34 0 -30 -4 -40 -16 -40 -13 0 -15 -8 -12 -40 2 -29 -1 -41 -12 -46
-11 -5 -7 -9 15 -15 18 -5 33 -5 39 1 15 15 329 13 344 -2 18 -18 17 -322 -2
-337 -9 -8 -65 -11 -177 -9 l-164 3 -3 120 c-4 166 -20 170 -24 6 -2 -72 0
-131 5 -131 4 0 7 -8 7 -17 0 -13 3 -14 12 -5 17 17 348 17 348 0 0 -6 7 -4
18 5 16 14 44 17 185 17 l166 0 1 -176 c0 -117 -3 -181 -11 -190 -8 -10 -7
-17 6 -30 14 -15 16 -37 13 -165 -2 -81 0 -142 4 -136 5 9 10 9 18 1 13 -13 2
-47 -12 -38 -6 4 -91 6 -189 5 -154 -2 -180 0 -185 13 -5 14 -30 16 -159 16
-119 0 -155 3 -164 14 -8 10 -11 60 -9 165 2 117 0 151 -10 151 -7 0 -17 12
-23 26 l-10 27 -144 -6 c-123 -5 -147 -4 -160 10 -13 12 -16 40 -14 147 0 72
5 139 10 148 7 13 4 17 -19 20 l-27 3 0 173 c0 135 -3 172 -13 172 -10 0 -13
-35 -11 -164 1 -90 -2 -169 -5 -175 -9 -14 -332 -15 -341 -1 -4 6 -72 10 -171
10 -142 0 -165 2 -171 16 -5 15 -7 15 -15 0 -8 -14 -32 -16 -167 -16 -117 0
-161 3 -169 13 -7 8 -10 71 -9 172 l2 160 169 3 c129 2 171 -1 178 -10 6 -10
8 -10 8 0 0 9 39 12 162 12 89 0 159 3 155 6 -3 3 -70 6 -149 5 -79 -1 -149 3
-156 7 -9 6 -12 48 -10 173 l3 164 355 2 c195 1 396 3 445 5 l90 2 -90 5 -90
6 -3 169 c-3 177 -1 185 41 180 12 -1 86 -3 165 -3z m3453 -8 c6 -6 9 -52 7
-122 -2 -61 0 -111 4 -111 4 0 9 55 10 123 l3 122 175 -2 c519 -5 538 -6 544
-28 11 -40 6 -304 -5 -311 -6 -4 -83 -7 -170 -8 -133 -1 -159 1 -163 14 -2 8
-4 3 -5 -12 0 -14 -7 -28 -13 -30 -10 -4 -13 -47 -14 -167 -1 -89 -4 -164 -7
-167 -7 -7 -325 -6 -337 1 -6 4 -10 71 -10 168 l0 162 82 -1 c71 -1 73 0 16 3
-58 3 -70 7 -88 30 -15 19 -20 21 -20 9 0 -14 -19 -16 -170 -16 -162 0 -170 1
-181 21 -15 29 -9 317 8 327 18 11 322 7 334 -5z m1459 -161 c3 -105 1 -172
-4 -172 -6 0 -6 -4 0 -10 11 -11 410 -15 591 -5 72 4 140 4 150 0 10 -4 96 -6
191 -5 121 1 178 -2 188 -11 11 -9 14 -44 14 -164 0 -85 -3 -160 -6 -169 -5
-14 -29 -16 -164 -16 -87 0 -165 3 -174 6 -14 5 -16 31 -18 168 l-2 161 -6
-165 -5 -165 -178 -1 c-98 -1 -181 -4 -184 -7 -3 -4 1 -13 10 -21 13 -13 16
-13 21 -1 4 12 81 14 527 14 288 0 527 -4 533 -8 7 -6 9 -65 6 -178 l-5 -168
-155 -5 -155 -6 151 -2 c107 -1 155 -6 162 -14 15 -19 16 -316 1 -334 -6 -8
-30 -15 -53 -15 -30 -2 -34 -3 -13 -6 l27 -4 -2 -162 -3 -162 -168 0 c-92 0
-167 -3 -167 -7 0 -5 -76 -8 -170 -8 -153 0 -170 2 -179 18 -5 10 -9 85 -8
168 l2 149 178 3 c134 2 177 -1 177 -10 0 -6 6 -4 13 7 9 11 19 15 28 10 11
-6 12 -5 2 6 -9 9 -14 63 -15 179 l-2 165 -3 -159 c-2 -97 -8 -165 -14 -173
-15 -18 -319 -19 -337 -1 -14 14 -17 305 -3 327 6 9 16 11 32 6 l24 -7 -22 24
c-22 23 -23 34 -25 179 l-2 154 -6 -165 -5 -165 -172 -3 -173 -2 0 147 c0 82
-4 153 -8 160 -4 6 -6 -50 -4 -124 5 -200 20 -183 -156 -185 l-147 -2 138 -3
137 -4 0 -168 0 -169 -31 -6 c-17 -3 -91 -6 -165 -6 -107 0 -136 3 -148 16
-13 12 -15 42 -14 167 1 157 4 181 19 171 5 -3 9 -1 9 5 0 5 -4 13 -10 16 -6
4 -10 72 -10 170 0 141 2 165 16 173 11 6 13 11 5 16 -7 5 -11 54 -12 144 -1
75 -4 148 -8 160 -3 13 -5 -43 -3 -125 5 -169 0 -182 -66 -184 l-37 -2 40 -6
40 -6 0 -170 0 -170 -170 -2 c-93 -1 -177 -4 -185 -7 -13 -5 -14 -31 -10 -177
3 -94 2 -173 -2 -176 -5 -2 -9 -75 -10 -161 l-2 -157 -3 150 c-2 82 -7 153
-11 157 -4 4 -6 -70 -4 -163 l3 -170 -158 2 c-148 2 -158 1 -161 -17 -3 -18 5
-19 156 -16 129 3 161 1 170 -11 9 -10 12 -62 10 -178 l-3 -164 -165 0 -165 0
-3 167 c-1 93 -6 168 -10 168 -4 0 -6 -68 -4 -151 2 -84 1 -162 -3 -176 l-5
-23 -173 2 -172 3 -3 164 c-2 124 1 166 10 172 10 7 10 11 0 21 -18 18 -17
331 2 347 10 8 76 11 216 10 111 0 204 2 207 5 4 3 -3 6 -15 6 -52 0 -52 0
-52 181 0 168 0 169 22 169 l22 0 -22 16 c-23 16 -23 18 -18 176 3 99 10 166
17 174 9 11 47 15 158 16 l146 2 -160 6 c-88 3 -164 2 -170 -2 -5 -5 -24 -8
-41 -8 -46 0 -52 -18 -8 -22 l36 -3 -1 -160 c-1 -88 -5 -163 -10 -168 -4 -4
-79 -6 -167 -5 l-159 3 0 154 c0 88 5 164 11 175 7 16 7 24 -4 32 -12 8 -15
45 -16 178 -1 101 3 171 9 175 13 11 327 14 342 3 6 -4 13 -30 16 -57 l3 -50
2 58 2 58 168 -1 c92 -1 172 -6 177 -10 7 -6 11 -2 11 8 0 15 -18 17 -181 17
l-180 0 0 170 0 170 169 3 c119 2 173 -1 183 -9 8 -7 13 -8 12 -3 -1 5 -1 12
0 17 0 4 74 6 164 5 l162 -3 5 -173z m210 167 c91 -1 171 -7 178 -12 8 -6 12
-6 12 2 0 8 48 11 160 11 l160 0 0 -165 0 -164 -156 -3 c-86 -2 -158 0 -161 5
-2 4 -11 0 -19 -8 -13 -12 -46 -15 -178 -15 -113 0 -166 4 -174 12 -8 8 -12
61 -12 173 0 151 3 180 19 170 4 -2 81 -5 171 -6z m909 -3 c8 -9 11 -65 9
-177 l-3 -164 -169 -3 c-125 -2 -172 1 -184 10 -13 11 -14 36 -8 172 3 87 9
162 12 167 3 5 79 9 168 9 127 0 166 -3 175 -14z m-7687 -153 c2 -98 -1 -162
-7 -168 -6 -6 -70 -9 -168 -7 -143 3 -159 5 -165 22 -4 10 -6 84 -4 164 l3
146 169 0 169 0 3 -157z m2538 -9 l0 -165 -164 3 c-131 2 -162 0 -154 -9 7 -9
7 -13 0 -13 -15 0 -25 18 -17 31 4 6 6 75 6 155 -1 79 1 149 4 154 4 6 72 10
166 10 l159 0 0 -166z m738 11 c1 -82 0 -160 -3 -173 -5 -22 -6 -22 -178 -20
l-172 3 -3 160 c-1 87 0 165 3 172 3 11 42 13 177 11 l173 -3 3 -150z m1472
-19 c4 -138 3 -167 -9 -171 -8 -3 -88 -5 -177 -5 -90 1 -167 -1 -173 -4 -14
-9 -21 8 -10 24 5 8 9 85 9 170 l0 155 177 -1 178 -2 5 -166z m-4382 -347 l-3
-171 -154 1 c-85 1 -158 4 -163 7 -4 3 -8 77 -8 164 0 143 2 159 18 162 9 2
83 4 165 5 l147 3 -2 -171z m3996 165 c14 -5 16 -32 18 -178 l2 -171 6 170 5
170 169 3 c116 2 173 -1 182 -9 19 -15 20 -329 2 -347 -13 -13 -329 -18 -341
-6 -3 4 -167 6 -363 5 -273 -1 -360 2 -372 11 -13 10 -14 10 -8 1 4 -7 2 -13
-3 -13 -6 0 -11 5 -11 12 0 9 -3 9 -12 0 -8 -8 -61 -12 -174 -12 l-162 0 -4
168 c-3 98 -1 172 5 180 14 18 320 17 335 -1 7 -8 10 -68 9 -165 -1 -84 1
-152 5 -152 4 0 9 73 10 163 l3 162 170 0 170 0 3 -167 c1 -93 6 -168 11 -168
5 0 10 73 11 162 0 90 4 166 8 170 13 13 297 23 326 12z m-3640 -174 l1 -165
-170 0 -170 0 -3 168 -2 167 171 -2 172 -3 1 -165z m4396 -8 c5 -167 4 -173
-15 -178 -11 -3 -89 -3 -174 -2 l-154 3 -1 173 c-1 96 1 176 3 178 3 2 79 3
170 2 l166 -3 5 -173z m2948 1 c2 -128 0 -162 -12 -172 -9 -8 -64 -11 -177 -9
l-164 3 -3 170 -2 170 177 -1 178 -1 3 -160z m-7711 -190 c4 -9 1 -19 -5 -21
-8 -2 -11 -30 -10 -85 l1 -82 7 65 c6 61 7 58 9 -45 6 -205 16 -195 -203 -195
-113 0 -166 4 -174 12 -17 17 -17 332 1 346 19 16 52 19 215 21 135 1 153 -1
159 -16z m2186 -12 c8 -1 10 -302 1 -325 -5 -14 -30 -16 -174 -16 -152 0 -169
2 -174 18 -2 9 -4 85 -3 167 l2 150 75 5 c63 4 248 5 273 1z m1105 -3 c9 -9
12 -9 12 0 0 9 46 12 175 12 173 0 175 0 180 -22 7 -35 11 -348 4 -336 -4 7
-9 6 -13 -1 -11 -17 -330 -15 -345 2 -6 8 -12 76 -14 173 l-3 159 -2 -167 c-1
-98 -6 -168 -12 -170 -5 -1 -83 -1 -172 2 l-163 5 -3 164 c-2 112 1 168 9 177
15 19 329 20 347 2z m730 -170 l2 -178 -22 -1 c-21 -1 -21 -2 -3 -6 11 -3 23
-10 28 -17 5 -8 9 -8 15 2 7 9 49 12 178 10 l169 -3 3 -169 c1 -96 -1 -172 -7
-175 -5 -3 -82 -4 -172 -1 l-163 5 2 110 c1 61 -2 126 -6 145 -6 23 -12 -82
-17 -297 l-8 -333 -168 0 c-92 0 -170 4 -173 8 -3 5 -8 161 -11 348 -6 286 -5
342 7 352 9 7 67 13 159 15 l144 3 -147 2 c-110 1 -148 5 -149 15 0 6 -2 87
-4 180 l-4 167 172 -2 172 -3 3 -177z m737 165 c6 -17 7 -17 17 1 10 18 20 18
182 12 94 -4 175 -11 180 -16 9 -9 9 -327 -1 -343 -3 -5 -5 -85 -4 -177 1 -93
-2 -171 -7 -174 -5 -3 -76 -8 -159 -12 -107 -5 -155 -4 -171 5 -21 11 -22 17
-22 176 0 147 2 165 17 165 15 0 15 1 0 18 -14 15 -17 43 -18 163 0 104 -3
136 -10 114 -5 -16 -7 -79 -4 -139 4 -74 2 -112 -6 -122 -9 -11 -46 -14 -170
-14 -146 0 -159 1 -169 19 -5 11 -10 83 -10 161 0 78 5 150 10 161 10 18 23
19 174 19 147 0 165 -2 171 -17z m-367 -165 l-3 -173 -158 -3 c-97 -1 -165 2
-177 8 -19 10 -20 21 -20 175 l0 165 180 0 180 0 -2 -172z m-3694 -188 c12
-12 15 -49 17 -174 1 -145 -1 -161 -17 -173 -14 -10 -56 -13 -174 -11 l-155 3
-6 120 c-4 66 -7 142 -8 168 0 29 -5 46 -11 42 -6 -4 -10 -69 -10 -164 0 -109
-4 -161 -12 -169 -13 -13 -329 -18 -341 -5 -4 3 -80 6 -170 4 -89 -1 -167 2
-173 6 -7 5 -13 68 -15 178 l-4 170 185 2 c102 1 196 7 210 12 16 7 140 10
347 8 269 -2 325 -5 337 -17z m416 -154 c0 -98 -4 -147 -13 -159 -11 -16 -30
-17 -172 -15 l-160 3 -3 162 -2 163 162 2 c90 2 169 -1 176 -6 9 -6 12 -48 12
-150z m1800 144 c6 -8 10 -86 10 -172 0 -140 -2 -158 -17 -167 -27 -14 -312
-14 -329 0 -11 9 -14 47 -14 179 0 91 3 170 8 174 4 5 80 6 170 4 130 -3 165
-7 172 -18z m372 -13 c4 -6 7 -78 7 -159 0 -123 -3 -150 -16 -164 -15 -15 -15
-17 0 -25 15 -9 16 -44 16 -352 0 -188 -3 -348 -8 -355 -6 -9 -48 -12 -177
-10 l-169 3 -9 332 c-4 183 -6 344 -2 357 6 24 8 24 168 33 l163 8 -160 5
-160 5 -3 160 c-1 87 -1 164 1 170 6 15 339 8 349 -8z m1476 -146 c1 -99 -1
-168 -7 -174 -14 -14 -292 -20 -325 -7 l-26 10 0 163 c0 90 3 167 7 171 4 3
84 5 177 4 l171 -3 3 -164z m732 143 c12 -30 13 -294 2 -312 -7 -9 -49 -12
-178 -10 l-169 3 -3 150 c-1 83 0 160 3 173 5 22 8 22 170 22 l165 0 10 -26z
m738 -148 c2 -127 -1 -171 -10 -177 -28 -17 10 -21 187 -20 185 2 185 2 195
-21 10 -22 10 -22 7 5 -3 18 0 27 10 27 10 0 11 5 4 18 -12 22 -13 302 -2 320
6 9 50 12 177 10 l169 -3 0 -165 c0 -154 -1 -165 -20 -175 -19 -9 -20 -20 -20
-170 l0 -160 -163 0 c-147 0 -162 -2 -162 -17 0 -24 -23 -28 -190 -31 l-145
-3 158 -2 157 -2 -2 -167 -3 -168 -153 -3 c-94 -1 -160 2 -172 8 -16 9 -20 8
-20 -5 0 -13 -24 -15 -174 -15 -149 0 -175 2 -180 16 -3 9 -6 88 -6 176 0 155
1 160 20 155 20 -5 20 -5 0 20 -18 23 -19 36 -13 176 3 84 10 158 16 165 6 7
38 12 86 13 42 1 110 5 151 9 58 6 41 7 -75 5 -82 -1 -156 0 -162 2 -10 4 -13
47 -13 172 0 92 3 171 7 175 4 3 81 5 172 4 l166 -3 3 -169z m-2578 -6 c0
-168 0 -170 -22 -175 -28 -7 -325 -2 -330 5 -2 3 -2 80 0 173 l3 167 174 0
175 0 0 -170z m-2674 -180 l94 0 0 -178 c0 -125 -4 -182 -12 -190 -13 -13
-329 -18 -341 -6 -4 4 -78 6 -166 5 -102 -2 -168 2 -181 9 -20 11 -20 18 -18
178 l3 167 173 3 c127 2 172 -1 172 -9 0 -8 6 -7 18 3 27 25 43 28 106 23 32
-3 101 -5 152 -5z m463 -14 c8 -9 11 -65 9 -177 l-3 -164 -175 0 -175 0 -3
169 c-2 129 1 171 10 178 7 4 83 8 169 8 121 0 159 -3 168 -14z m1471 -173 c0
-98 0 -182 0 -188 4 -35 0 -317 -4 -324 -7 -11 -150 -14 -248 -5 l-78 7 0 168
c0 101 -4 170 -10 174 -6 4 -10 73 -10 176 l0 169 175 0 176 0 -1 -177z m738
0 l2 -173 -170 0 -170 0 0 108 c0 59 -3 137 -7 175 l-6 67 174 -2 174 -3 3
-172z m740 3 c2 -129 -1 -171 -10 -178 -7 -4 -81 -8 -165 -8 -119 0 -155 3
-166 15 -12 11 -14 42 -10 167 2 84 6 159 9 166 3 10 42 12 171 10 l168 -3 3
-169z m370 5 c1 -103 -1 -168 -8 -175 -6 -6 -10 -75 -10 -172 0 -138 -2 -163
-16 -168 -23 -9 -314 -7 -314 2 -5 132 -3 322 3 322 5 0 6 4 3 8 -8 13 -16
339 -9 346 4 4 84 5 177 4 l171 -3 3 -164z m362 -6 l0 -175 -172 2 -173 3 -3
160 c-1 87 0 165 2 172 4 10 46 13 176 13 l170 0 0 -175z m2951 153 c1 -17 0
-207 -1 -321 0 -4 -80 -6 -177 -5 l-178 3 -3 160 c-1 87 0 165 2 172 4 10 47
13 181 13 175 0 175 0 176 -22z m-6268 -335 c3 -5 83 -9 178 -11 96 -2 178 -7
184 -12 6 -5 10 -135 10 -357 l0 -348 -164 -3 c-112 -2 -168 1 -177 9 -11 9
-15 48 -16 163 l-2 151 -6 -160 -5 -160 -164 -3 c-162 -2 -196 3 -185 31 3 9
-37 11 -161 9 l-164 -3 -7 25 c-3 14 -4 84 -1 156 6 123 5 130 -13 130 -10 0
-22 5 -25 10 -4 6 -74 10 -179 10 -98 0 -176 4 -182 10 -5 5 -84 11 -174 12
l-165 3 -3 163 -3 164 342 -7 341 -6 1 -157 1 -157 5 155 c7 194 -5 183 205
176 82 -3 153 -9 158 -14 5 -5 8 -86 6 -180 -2 -93 0 -168 5 -165 4 2 8 -17 9
-44 1 -43 2 -44 5 -10 l4 37 159 0 c92 0 161 4 165 10 4 6 -54 11 -157 12
l-163 3 0 175 0 175 100 6 c167 9 234 9 238 2z m744 -7 c4 -8 6 -92 3 -188
l-5 -173 -172 -3 -173 -2 0 98 c0 55 -3 133 -6 175 -6 61 -4 77 7 81 51 15
129 23 226 25 87 1 114 -2 120 -13z m5524 -19 c0 -13 0 -277 -1 -314 0 -23 0
-23 -174 -23 -158 0 -175 2 -180 18 -4 14 -11 318 -7 332 0 3 82 4 181 2 132
-2 180 -6 181 -15z m-4421 -162 l0 -175 -172 2 -173 3 -3 160 c-1 87 0 165 2
172 4 10 46 13 176 13 l170 0 0 -175z m370 -160 c0 -183 -4 -336 -9 -339 -15
-10 -254 -16 -291 -8 -32 7 -35 11 -35 45 0 20 -4 37 -9 37 -4 0 -5 28 -2 63
4 34 7 88 8 120 l1 57 41 2 41 1 -40 4 c-22 3 -43 8 -48 12 -9 9 -21 285 -13
317 l6 24 175 0 175 0 0 -335z m370 165 c0 -150 -2 -170 -17 -179 -10 -6 -13
-11 -8 -11 11 0 11 -292 1 -309 -4 -5 -76 -10 -165 -10 -154 -1 -160 -1 -166
19 -4 12 -4 165 0 341 l8 319 173 0 174 0 0 -170z m735 -5 l0 -170 -175 0
-175 0 -9 26 c-5 14 -5 89 -1 172 l7 147 177 -2 176 -3 0 -170z m3315 0 l0
-175 -172 2 -173 3 -3 173 -2 172 175 0 175 0 0 -175z m-5532 -180 c6 -3 13
-17 13 -32 1 -21 3 -23 6 -8 3 11 9 22 14 25 5 3 82 6 171 5 l163 0 0 -175 0
-175 -125 -5 c-145 -7 -140 -12 13 -14 80 -1 110 -5 116 -15 11 -17 8 -311 -2
-328 -6 -10 -52 -13 -173 -13 l-164 0 0 28 c0 15 -2 93 -5 175 -3 110 -1 147
8 148 25 1 49 8 55 14 4 4 -9 6 -28 5 -19 -1 -39 -1 -45 -1 -5 1 -89 3 -185 4
l-175 2 0 169 0 169 29 16 c24 14 54 16 165 13 75 -2 142 -5 149 -7z m1844
-12 c10 -9 18 -12 18 -7 0 5 76 9 173 9 l172 -1 5 -167 c3 -92 4 -172 2 -177
-2 -6 -71 -10 -173 -10 l-169 0 0 138 c0 201 -14 216 -20 22 l-5 -165 -166 -3
c-135 -2 -168 0 -178 12 -9 10 -12 65 -12 178 0 143 2 164 17 175 13 9 62 13
168 13 125 0 152 -3 168 -17z m-3682 -8 c12 -7 14 -314 2 -333 -7 -9 -49 -12
-178 -10 l-169 3 -3 172 c-2 157 -1 172 15 176 27 6 321 -1 333 -8z m2580 0
c10 -12 11 -89 6 -358 -4 -188 -11 -345 -15 -350 -4 -4 -81 -6 -172 -5 l-164
3 -9 343 c-6 261 -5 346 4 357 13 16 57 21 221 23 94 2 119 -1 129 -13z
m-1102 -167 l-3 -173 -169 -3 c-129 -2 -172 1 -178 10 -9 14 -10 302 -1 325 4
10 43 13 179 13 l174 0 -2 -172z m1262 -168 c0 -5 7 -10 15 -10 8 0 15 5 15
10 0 6 18 10 40 10 22 0 40 -4 40 -10 0 -5 20 -10 45 -10 29 0 47 -5 53 -16 8
-14 10 -14 21 0 9 11 25 13 62 9 41 -5 49 -3 49 11 0 12 9 16 35 16 24 0 35
-5 35 -15 0 -8 7 -15 16 -15 10 0 14 6 10 15 -7 21 59 20 108 0 l36 -15 -2
-178 -3 -177 -164 -3 c-172 -3 -190 1 -192 42 -1 15 -3 12 -8 -9 l-6 -30 -170
0 -170 0 -3 155 c-3 177 0 200 29 200 11 0 22 7 25 15 7 17 84 22 84 5z
m-2482 -20 l112 0 -2 -177 -3 -178 -169 0 -169 0 -4 174 c-3 135 -1 176 9 183
7 5 36 7 63 4 28 -3 101 -6 163 -6z m477 -180 l0 -175 -170 0 -170 0 -3 165
c-1 90 0 170 3 178 4 10 39 13 172 10 l168 -3 0 -175z m363 172 c9 -6 12 -49
10 -178 l-3 -169 -164 -3 c-112 -2 -168 1 -177 9 -22 18 -20 325 2 337 20 11
315 15 332 4z m2587 -177 l0 -170 -164 -3 c-112 -2 -168 1 -177 9 -11 9 -14
48 -14 178 l0 166 177 -5 178 -5 0 -170z m362 171 c10 -4 13 -44 13 -170 0
-140 -2 -165 -16 -170 -31 -12 -319 -7 -332 6 -15 15 -17 319 -3 334 10 9 313
9 338 0z m739 2 c10 -11 8 -328 -2 -338 -7 -7 -74 -9 -175 -8 l-164 3 -3 169
c-2 127 1 171 10 177 14 9 325 5 334 -3z m369 -168 l0 -175 -170 0 -170 0 -3
165 c-1 90 -1 169 1 175 3 6 66 10 173 10 l169 0 0 -175z"/>
<path d="M9128 7578 l-3 -103 -153 0 c-83 0 -152 -3 -152 -7 0 -4 69 -9 153
-10 l152 -3 3 -157 3 -158 27 -1 c15 0 106 0 204 1 114 1 178 -3 183 -9 4 -7
69 -11 181 -11 l174 0 0 -150 c0 -82 4 -150 9 -150 5 0 8 6 8 13 -1 6 2 73 7
147 6 99 12 140 23 153 15 15 15 17 0 17 -15 0 -17 18 -17 170 0 152 2 170 18
179 10 5 78 9 151 9 73 0 135 3 138 6 4 3 -64 6 -150 6 l-157 0 0 80 c0 79 0
80 -25 80 -25 0 -25 -1 -25 -84 0 -75 2 -84 20 -89 19 -5 20 -14 20 -174 0
-118 -4 -173 -12 -181 -15 -15 -319 -17 -333 -3 -6 6 -8 80 -5 184 3 98 1 178
-4 183 -11 11 -380 9 -397 -2 -9 -5 -11 15 -7 80 4 78 3 86 -13 86 -16 0 -19
-12 -21 -102z m415 -75 c5 -7 12 -296 8 -336 -1 -17 -14 -18 -201 -16 l-200 2
0 150 c0 150 0 151 27 179 l27 28 167 0 c92 0 170 -3 172 -7z"/>
<path d="M8500 6406 c0 -11 27 -13 148 -9 124 4 150 3 160 -10 10 -11 12 -58
10 -176 -2 -122 0 -162 10 -166 6 -2 12 -13 12 -24 0 -19 7 -21 148 -23 l147
-3 0 -158 0 -157 27 0 c17 0 33 -8 40 -20 12 -19 24 -20 160 -20 l148 0 2
-147 c1 -82 1 -158 0 -170 0 -16 5 -23 18 -23 10 0 20 -7 24 -15 4 -12 34 -15
158 -17 l153 -3 2 -165 1 -165 26 -3 c14 -2 26 -8 26 -13 0 -5 64 -9 151 -9
97 0 148 4 144 10 -4 6 -60 10 -134 10 -173 0 -166 -8 -157 192 4 84 12 158
18 165 7 8 51 14 136 16 70 2 -11 1 -181 -1 -287 -4 -309 -3 -328 14 -19 17
-19 26 -13 168 4 83 10 158 15 167 8 15 -9 17 -174 18 -144 2 -185 5 -198 17
-14 13 -16 34 -12 157 6 210 -17 187 188 187 157 0 174 -2 179 -17 5 -16 22
-18 153 -18 l148 0 0 -163 c0 -121 3 -162 12 -162 9 0 13 42 15 163 l3 162
170 5 c94 3 166 7 161 8 -6 1 -1 8 9 16 17 12 1 14 -130 15 -82 1 -151 4 -154
7 -3 3 -4 59 -2 125 2 79 -1 119 -8 119 -7 0 -11 -45 -13 -122 l-3 -123 -170
0 -170 0 -5 140 c-3 91 -8 132 -13 117 -5 -12 -7 -72 -6 -132 2 -60 1 -111 -2
-114 -2 -3 -81 -6 -174 -7 l-170 -2 -5 154 -6 154 -2 -146 c-1 -111 -5 -149
-16 -158 -9 -8 -65 -11 -177 -9 l-164 3 -3 164 c-2 145 0 166 15 184 18 19 17
20 -5 8 -18 -10 -23 -9 -28 4 -9 21 -314 23 -314 1z"/>
<path d="M330 2116 c0 -82 -4 -117 -13 -125 -8 -6 -74 -12 -163 -14 l-149 -3
168 -1 c93 -1 171 -4 175 -7 3 -4 5 -77 4 -164 -2 -135 -5 -159 -20 -170 -12
-9 -58 -13 -162 -12 -201 1 -198 -3 5 -10 l170 -5 0 -170 0 -170 -170 -5 -170
-6 156 -2 c111 -1 160 -6 174 -15 12 -10 14 -16 7 -21 -8 -5 -12 -57 -12 -165
0 -109 -4 -161 -12 -169 -9 -9 -7 -12 10 -12 22 0 22 0 20 -172 l-3 -173 -170
-5 -170 -6 156 -2 c111 -1 160 -6 174 -15 12 -10 14 -16 7 -21 -7 -4 -11 -26
-11 -49 l2 -42 6 34 c3 19 12 36 19 39 7 2 10 -2 6 -12 -3 -9 -2 -16 4 -16 5
0 10 -6 9 -12 0 -7 1 -48 1 -90 2 -62 5 -78 17 -78 12 0 15 21 17 120 0 66 1
125 2 132 1 7 -10 15 -24 18 l-25 6 -3 164 c-1 90 2 168 7 173 12 12 340 15
345 2 1 -5 12 -2 23 8 24 21 18 21 198 11 80 -4 143 -12 147 -18 5 -7 22 -6
55 4 32 10 92 15 179 15 101 0 130 3 127 12 -4 10 -40 13 -134 13 -79 0 -129
4 -129 10 0 6 52 11 133 12 l132 2 -140 6 -140 5 -3 153 c-3 205 -22 202 -22
-3 l0 -155 -157 0 c-87 0 -163 4 -170 8 -9 5 -13 53 -15 157 -2 120 -6 149
-17 147 -7 -1 -22 0 -32 3 -18 6 -19 18 -19 171 0 103 -4 164 -10 164 -6 0
-10 -62 -10 -165 l0 -165 -175 0 -175 0 0 168 c0 117 4 172 12 180 8 8 56 12
150 12 l138 0 0 25 c0 24 -1 24 -107 27 l-108 3 -3 153 -3 152 108 2 c108 2
108 2 -37 8 l-145 5 -3 118 c-2 95 -5 117 -17 117 -12 0 -15 -20 -15 -114z
m388 -1048 l-3 -173 -175 0 -175 0 -3 173 -2 172 180 0 180 0 -2 -172z"/>
<path d="M9138 369 c2 -86 -1 -156 -6 -161 -6 -6 -78 -10 -160 -10 -146 0
-151 -1 -154 -22 -2 -14 -12 -22 -33 -26 -20 -4 -26 -8 -17 -13 7 -5 12 -32
12 -73 0 -57 2 -64 20 -64 16 0 20 7 21 33 2 86 17 117 55 117 13 0 24 4 24 8
0 13 243 2 265 -13 17 -10 23 -10 34 3 11 11 29 13 80 9 36 -4 107 -8 158 -11
51 -2 97 -7 103 -11 5 -3 10 -35 10 -71 0 -59 2 -64 21 -64 20 0 21 4 17 59
l-4 59 95 1 c53 1 98 7 102 12 3 6 42 11 85 11 186 0 374 10 374 19 0 12 -317
12 -325 -1 -8 -12 -326 -11 -342 2 -9 8 -13 52 -13 159 l0 149 -25 0 -24 0 -3
-137 -3 -138 -168 -3 c-148 -2 -168 -1 -174 14 -3 9 -7 82 -7 162 -1 87 -5
147 -11 149 -6 2 -9 -51 -7 -148z"/>
<path d="M1124 444 c5 -13 2 -15 -14 -11 -19 5 -20 0 -20 -81 0 -95 10 -127
29 -96 10 16 10 15 5 -9 -7 -31 -8 -42 -6 -74 2 -23 3 -23 160 -23 110 0 162
-4 170 -12 7 -7 12 -39 12 -75 0 -49 3 -63 15 -63 12 0 15 16 15 80 l0 80 160
0 c121 0 160 3 160 13 0 9 -35 12 -143 11 -78 0 -150 3 -159 8 -15 7 -18 27
-21 121 l-3 112 -2 -112 -2 -113 -165 0 -165 0 -2 43 c-1 23 0 62 1 86 4 58
-8 131 -21 131 -5 0 -7 -7 -4 -16z"/>
<path d="M420 179 c0 -6 -13 -9 -28 -8 -16 2 -41 -5 -58 -16 -24 -17 -52 -21
-174 -26 l-145 -5 150 1 c150 2 201 7 233 23 28 15 320 2 326 -14 3 -7 -16
-31 -45 -54 -27 -23 -49 -50 -49 -61 0 -16 8 -19 55 -19 l55 0 0 68 c0 40 -5
73 -12 80 -8 8 -52 12 -133 12 -85 0 -128 4 -147 14 -16 9 -28 11 -28 5z"/>
</g>
</svg>
