<?xml version="1.0" standalone="no"?>
<!DOCTYPE svg PUBLIC "-//W3C//DTD SVG 20010904//EN"
 "http://www.w3.org/TR/2001/REC-SVG-20010904/DTD/svg10.dtd">
<svg version="1.0" xmlns="http://www.w3.org/2000/svg"
 width="225.000000pt" height="225.000000pt" viewBox="0 0 225.000000 225.000000"
 preserveAspectRatio="xMidYMid meet">
<metadata>
Created by potrace 1.16, written by Peter Selinger 2001-2019
</metadata>
<g transform="translate(0.000000,225.000000) scale(0.100000,-0.100000)"
fill="#000000" stroke="none">
<path d="M90 2240 c-8 -5 -29 -10 -47 -10 -17 0 -35 -5 -39 -11 -5 -9 11 -10
60 -5 77 9 94 -9 19 -19 -66 -9 -83 -15 -83 -27 0 -5 7 -8 15 -4 8 3 44 8 80
12 94 10 83 -11 -15 -27 -44 -7 -80 -16 -80 -21 0 -11 21 -10 110 6 55 10 77
11 82 3 10 -16 -7 -23 -72 -31 -115 -14 -117 -15 -118 -48 l-1 -31 29 28 c46
44 54 24 11 -25 -22 -25 -40 -52 -40 -60 0 -10 6 -7 20 10 64 76 100 111 114
108 10 -2 -9 -30 -60 -91 -41 -49 -75 -95 -75 -103 0 -16 45 34 167 184 12 15
27 23 40 20 18 -2 5 -22 -94 -136 -63 -73 -113 -138 -111 -144 2 -6 38 28 79
77 126 150 157 181 167 170 7 -7 -35 -62 -119 -160 -71 -82 -129 -156 -129
-164 0 -19 -10 -29 140 147 62 73 115 131 117 128 11 -11 -45 -92 -148 -214
-63 -75 -108 -137 -103 -141 5 -5 67 -39 139 -76 143 -75 159 -85 153 -108 -2
-12 -38 4 -148 68 -80 46 -147 82 -149 80 -9 -10 22 -31 153 -105 128 -72 167
-102 152 -117 -2 -3 -71 33 -153 80 -81 47 -150 84 -152 82 -9 -9 20 -29 155
-105 133 -76 166 -101 151 -117 -3 -3 -72 34 -152 82 -81 47 -149 84 -153 81
-3 -3 -3 -8 -1 -10 4 -3 130 -79 262 -156 35 -21 57 -41 57 -52 0 -10 -2 -18
-5 -18 -5 0 -229 136 -289 175 -21 14 -28 16 -24 5 4 -12 64 -52 266 -177 49
-30 72 -57 59 -69 -2 -3 -76 40 -162 96 -87 55 -160 98 -162 96 -3 -3 0 -141
7 -307 9 -243 9 -304 -2 -310 -16 -10 -24 -5 132 -96 332 -196 370 -218 370
-225 0 -26 -73 8 -274 127 -126 74 -230 135 -232 135 -2 0 -4 -4 -4 -9 0 -8
92 -64 337 -207 56 -32 103 -62 103 -66 1 -26 -68 6 -239 108 -106 63 -196
113 -199 109 -8 -7 -14 -3 190 -126 92 -55 170 -104 173 -108 3 -5 -2 -12 -11
-15 -17 -7 -22 -4 -215 116 -69 43 -129 78 -133 78 -24 0 11 -27 122 -94 160
-96 179 -111 160 -119 -8 -3 -73 31 -149 78 -73 46 -135 82 -137 80 -9 -8 12
-24 118 -89 61 -38 113 -73 116 -77 12 -20 -35 -7 -86 24 -152 91 -150 90
-150 68 0 -14 5 -19 15 -15 19 8 19 -13 0 -50 -8 -15 -15 -38 -14 -50 0 -14 9
-3 25 31 17 38 28 51 39 47 8 -4 15 -7 15 -9 0 -1 -18 -42 -40 -90 -23 -48
-40 -95 -38 -104 2 -9 23 28 48 82 25 53 48 97 52 97 21 0 12 -30 -42 -145
-63 -133 -70 -159 -45 -169 19 -7 19 -36 0 -36 -8 0 -15 -5 -15 -10 0 -6 13
-9 29 -8 35 3 43 -15 9 -20 -50 -8 -37 -20 20 -19 60 2 61 2 44 22 -9 11 -21
25 -27 30 -24 23 -55 69 -55 81 0 27 18 13 81 -61 35 -41 70 -75 78 -75 7 0
-5 21 -28 48 -104 118 -114 133 -104 143 7 7 41 -23 103 -91 51 -55 97 -100
102 -100 10 0 -18 35 -129 158 -46 51 -59 72 -52 83 10 15 24 1 172 -164 38
-43 73 -77 79 -77 12 0 -15 34 -107 135 -40 44 -84 94 -99 111 -26 31 -33 54
-18 54 7 0 87 -85 222 -236 30 -34 60 -62 65 -63 6 0 22 26 37 59 16 36 33 60
43 60 21 0 19 -13 -10 -70 -14 -28 -21 -50 -15 -50 5 0 26 32 45 70 19 39 40
70 45 70 14 0 13 -2 -15 -72 -14 -34 -23 -64 -20 -66 8 -8 11 -3 49 81 21 47
41 77 50 77 17 0 16 -4 -28 -103 -15 -33 -21 -57 -15 -55 6 2 27 40 47 83 20
44 41 83 47 87 24 17 23 5 -1 -49 -53 -118 -56 -125 -43 -121 7 2 30 45 52 96
35 80 60 113 74 98 3 -3 -13 -45 -36 -94 -23 -49 -41 -92 -41 -95 0 -18 17 -3
29 26 55 124 83 177 91 172 18 -11 10 -44 -30 -117 -22 -40 -40 -76 -40 -80 0
-5 82 -7 183 -7 l182 2 -164 8 c-90 5 -166 10 -168 13 -3 3 -2 10 3 17 5 9 40
10 138 5 333 -16 460 -27 467 -38 5 -7 11 -9 15 -6 3 4 -3 23 -15 43 -26 44
-26 45 -2 45 12 0 29 -17 45 -45 29 -50 56 -63 31 -15 -19 37 -19 39 3 34 9
-3 25 -18 34 -35 19 -33 46 -42 28 -10 -5 11 -10 22 -10 26 0 9 44 -17 57 -34
10 -13 14 -14 22 -2 6 10 13 10 29 2 11 -6 36 -11 54 -11 22 1 -30 22 -155 64
-103 34 -190 65 -193 68 -3 3 6 8 20 12 17 4 97 -18 254 -69 126 -41 244 -75
263 -75 l34 0 133 270 c82 166 139 270 148 270 8 0 14 -2 14 -5 0 -3 -59 -123
-130 -268 l-131 -262 43 -3 c42 -3 150 9 258 29 l56 11 1 46 2 47 -20 -43
c-11 -23 -26 -42 -34 -42 -19 0 -20 -5 20 83 19 42 35 84 34 94 0 10 -22 -28
-49 -84 -39 -82 -54 -103 -70 -103 -17 0 -19 3 -11 18 44 82 131 279 129 291
-2 8 -39 -61 -82 -152 -69 -145 -83 -167 -103 -167 -29 0 -29 0 6 63 82 149
181 356 181 377 0 21 -15 34 -85 75 -47 27 -85 55 -85 62 0 22 25 14 96 -31
38 -25 70 -43 72 -41 9 9 -13 27 -78 66 -39 23 -70 48 -70 55 0 19 2 19 75
-26 70 -43 75 -45 75 -31 0 5 -32 28 -70 51 -38 23 -70 49 -70 56 0 20 4 18
71 -21 65 -38 69 -39 69 -27 0 5 -29 26 -65 47 -45 26 -65 44 -65 57 0 19 1
19 38 -3 20 -12 46 -29 57 -36 22 -15 35 -17 35 -5 0 5 -27 23 -60 42 -39 22
-60 40 -60 52 0 23 -1 23 64 -13 51 -27 70 -29 47 -4 -4 6 -14 132 -20 280
-15 352 -15 328 9 320 11 -3 20 -3 20 2 0 8 -28 28 -107 77 -40 25 -56 46 -33
46 5 0 39 -18 75 -40 37 -22 65 -34 65 -27 0 6 -28 28 -61 47 -63 37 -86 56
-76 67 4 3 34 -11 67 -31 67 -39 70 -40 70 -27 0 5 -31 27 -70 50 -38 23 -70
46 -70 51 0 14 3 13 76 -27 40 -21 65 -31 62 -22 -2 7 -31 28 -64 46 -39 21
-60 39 -62 52 -3 20 2 19 62 -15 36 -20 66 -31 66 -25 0 5 -30 27 -66 47 -80
44 -75 70 6 29 28 -14 55 -24 58 -20 4 3 0 10 -8 15 -12 7 -12 12 -2 22 6 6
12 19 12 28 -1 11 -5 9 -19 -7 -11 -13 -24 -23 -30 -23 -19 0 -11 24 19 60 17
19 30 41 30 48 0 8 -19 -8 -42 -36 -23 -28 -48 -48 -55 -45 -14 6 -10 13 60
97 22 25 37 51 35 57 -2 6 -28 -18 -58 -55 -29 -36 -55 -64 -58 -61 -12 12 13
57 63 115 30 35 55 70 55 79 0 13 -21 -9 -92 -93 l-17 -21 -1 23 c0 15 21 47
55 85 69 76 72 98 5 32 -32 -31 -50 -43 -50 -33 0 8 23 38 52 66 29 28 50 53
48 55 -5 4 -39 -1 -275 -39 -137 -21 -147 -22 -152 -7 -5 14 -7 14 212 48 198
31 215 35 215 45 0 4 -24 3 -52 -2 -298 -48 -398 -62 -405 -55 -3 4 -4 9 -1
12 2 3 105 21 229 41 216 34 238 39 228 49 -5 4 -55 -3 -326 -46 -123 -20
-169 -21 -152 -5 2 2 110 21 239 41 129 21 237 39 239 41 18 16 -40 11 -256
-24 -136 -23 -249 -39 -252 -36 -13 13 29 24 184 49 94 15 204 33 245 40 74
13 74 13 24 14 -28 1 -75 -4 -105 -9 -150 -28 -362 -59 -370 -54 -21 13 -5 23
49 30 31 4 89 13 127 20 l70 12 -83 1 c-47 1 -90 -4 -101 -11 -15 -9 -31 -9
-73 1 -29 7 -66 11 -81 9 l-28 -3 85 -130 c47 -71 81 -131 76 -133 -23 -8 -54
27 -122 135 -92 147 -86 139 -93 131 -3 -3 28 -60 69 -127 61 -99 72 -121 56
-121 -18 0 -86 94 -152 209 -12 22 -29 41 -35 41 -12 0 32 -78 103 -185 36
-52 34 -62 -8 -46 -18 7 -42 39 -79 108 -30 54 -55 104 -57 111 -2 6 -10 12
-19 12 -13 0 -14 -3 -1 -22 8 -13 36 -63 63 -112 45 -83 46 -88 24 -81 -31 9
-31 9 -69 80 -18 33 -41 76 -52 95 l-19 35 -247 1 c-136 1 -211 -1 -167 -3
329 -14 435 -26 413 -48 -5 -5 -289 6 -545 21 -86 5 -113 10 -113 20 0 32 -18
8 -68 -91 -30 -58 -58 -105 -63 -105 -13 0 -14 -3 36 103 48 103 49 107 37
107 -5 0 -32 -53 -62 -117 -29 -65 -62 -127 -72 -138 -33 -35 -22 0 43 143 46
100 51 114 37 110 -6 -2 -40 -68 -74 -147 -57 -133 -86 -182 -99 -170 -3 3 20
62 51 130 80 177 85 191 73 187 -6 -2 -45 -81 -88 -177 -73 -160 -103 -212
-116 -200 -2 3 32 87 76 188 45 100 78 185 75 188 -9 9 -6 15 -101 -202 -57
-132 -96 -208 -113 -222 -14 -12 -27 -21 -29 -19 -2 1 42 101 97 221 55 120
97 221 95 224 -9 8 -19 -10 -57 -94 -20 -44 -52 -114 -71 -155 -19 -41 -47
-103 -62 -137 -20 -45 -33 -63 -46 -63 -11 0 -19 5 -19 11 0 6 45 106 100 222
55 116 97 213 94 216 -3 3 -9 -1 -14 -9 -7 -12 -12 -12 -22 -2 -22 22 -31 13
-13 -14 27 -42 3 -48 -35 -9 -19 19 -41 35 -49 35 -9 0 1 -17 27 -43 39 -40
51 -65 36 -80 -4 -4 -14 2 -23 12 -84 95 -102 112 -110 109 -10 -3 9 -27 86
-109 22 -23 32 -41 27 -52 -3 -9 -9 -17 -14 -17 -4 0 -40 40 -81 89 -41 50
-78 90 -84 90 -5 0 -17 -4 -25 -9z m986 -54 c166 -8 307 -17 313 -20 30 -19 3
-25 -86 -20 -54 3 -214 9 -355 12 -141 4 -259 10 -263 14 -15 15 8 28 48 28
23 -1 178 -7 343 -14z m49 -52 c290 -7 288 -7 293 -24 4 -10 -45 -11 -249 -6
-429 11 -509 16 -509 34 0 13 15 14 108 9 59 -4 220 -9 357 -13z m220 -82 c77
-17 189 -43 250 -57 60 -14 114 -25 120 -25 23 0 -22 -20 -46 -20 -14 0 -104
18 -199 40 -95 22 -216 50 -269 61 -53 12 -103 25 -111 30 -31 19 117 2 255
-29z m-1 -52 c143 -33 262 -60 265 -61 3 0 -4 -4 -17 -10 -18 -7 -92 6 -294
51 -149 33 -274 62 -277 65 -10 10 23 24 44 19 11 -2 137 -31 279 -64z m796
43 c0 -5 -9 -91 -19 -193 -11 -102 -25 -234 -31 -295 -6 -60 -13 -125 -17
-143 -5 -32 -6 -32 -19 -13 -9 13 -13 34 -9 58 4 35 18 164 46 443 14 137 17
150 34 150 8 0 15 -3 15 -7z m-55 -35 c-5 -32 -22 -188 -47 -442 -11 -117 -12
-118 -30 -96 -10 12 -16 31 -13 44 3 11 11 89 20 171 32 327 36 355 57 355 16
0 18 -5 13 -32z m-55 5 c0 -10 -6 -74 -14 -143 -8 -69 -20 -176 -26 -238 -11
-93 -15 -110 -26 -101 -19 16 -18 43 11 274 14 110 25 206 25 213 0 6 7 12 15
12 8 0 15 -8 15 -17z m-1032 -30 c20 -16 86 -66 146 -113 59 -47 143 -111 185
-143 42 -32 85 -67 96 -78 19 -19 19 -19 -8 -19 -16 0 -34 6 -41 13 -7 6 -35
30 -62 52 -27 22 -92 76 -145 120 -53 44 -124 103 -158 130 -54 44 -72 65 -56
65 3 0 22 -12 43 -27z m11 -59 c36 -31 75 -63 86 -72 11 -10 61 -51 110 -92
50 -41 102 -85 118 -96 32 -26 35 -37 7 -32 -20 3 -419 327 -420 341 -1 21 40
1 99 -49z m861 42 c-8 -7 -76 -30 -150 -50 -74 -20 -205 -56 -290 -80 -113
-32 -159 -41 -168 -33 -19 15 -10 19 158 62 80 20 210 54 290 75 167 44 181
46 160 26z m-871 -301 c83 -137 149 -251 147 -252 -12 -12 -41 23 -100 120
-37 62 -103 170 -147 240 -43 71 -79 133 -79 138 0 39 49 -28 179 -246z m-289
111 c0 -14 -34 -16 -307 -16 -191 0 -303 4 -298 9 13 13 58 15 353 19 224 3
252 2 252 -12z m-22 -48 c-4 -10 -77 -14 -311 -16 -169 -1 -307 2 -307 6 0 5
3 12 7 15 3 4 143 7 311 7 238 0 303 -3 300 -12z m1152 -219 c69 -106 126
-198 128 -205 2 -8 -2 -14 -10 -14 -10 0 -263 367 -276 401 -2 5 5 9 15 9 12
0 56 -58 143 -191z m-45 -25 c118 -178 150 -241 114 -218 -5 3 -70 96 -144
207 -97 145 -132 203 -123 209 7 4 14 8 15 8 2 0 64 -93 138 -206z m-83 34
c177 -262 180 -268 163 -275 -9 -3 -17 -4 -19 -2 -11 14 -276 420 -276 424 0
3 6 5 14 5 8 0 61 -69 118 -152z m-1078 117 c-5 -13 -43 -15 -259 -15 -139 0
-260 3 -269 6 -49 19 10 24 259 24 240 0 274 -2 269 -15z m966 -41 c12 -12
-18 -14 -216 -14 -257 0 -320 5 -329 27 -5 14 27 15 262 8 210 -5 271 -10 283
-21z m24 -45 c23 -21 -22 -24 -269 -19 -228 4 -260 7 -263 21 -3 15 22 16 260
11 145 -2 267 -8 272 -13z m-1280 -21 c3 -18 12 -100 20 -183 9 -82 23 -213
32 -289 13 -123 13 -141 0 -154 -19 -19 -18 -22 -51 308 -14 140 -28 276 -32
303 -5 39 -3 47 10 47 10 0 18 -12 21 -32z m46 24 c0 -5 4 -44 10 -88 27 -222
50 -508 41 -517 -13 -13 -17 8 -36 193 -9 85 -23 209 -31 275 -17 147 -17 145
1 145 8 0 15 -4 15 -8z m51 6 c0 -2 13 -124 28 -273 27 -255 27 -295 2 -295
-4 0 -13 60 -19 133 -7 72 -19 197 -27 277 -8 80 -15 148 -15 153 0 6 29 11
31 5z m68 -145 c7 -82 16 -195 21 -253 8 -87 7 -107 -5 -120 -13 -12 -15 -11
-15 10 0 14 -11 133 -25 265 -14 132 -25 241 -25 243 0 1 8 2 18 2 17 0 20
-16 31 -147z m899 98 c188 -1 203 -2 200 -18 -3 -17 -21 -18 -238 -14 -129 2
-238 5 -242 8 -5 2 -8 11 -8 19 0 12 9 14 43 10 23 -2 133 -5 245 -5z m15 -51
c162 0 167 -1 167 -20 0 -21 -3 -21 -207 -15 -115 4 -214 8 -220 10 -7 3 -13
12 -13 21 0 14 8 16 53 10 28 -3 127 -6 220 -6z m754 -32 c10 -13 33 -411 33
-553 0 -59 -2 -67 -14 -55 -10 11 -18 91 -30 305 -19 336 -19 315 -7 315 5 0
13 -6 18 -12z m-847 -22 c0 -6 -87 -146 -164 -266 -34 -52 -68 -107 -76 -122
-7 -16 -17 -28 -22 -28 -16 0 -8 34 19 79 15 25 34 58 43 73 81 140 167 268
183 268 9 0 17 -2 17 -4z m60 -5 c0 -8 -67 -115 -179 -286 -25 -38 -48 -74
-51 -80 -13 -28 -66 -105 -72 -105 -5 0 -8 8 -8 18 0 17 26 61 153 262 29 47
69 111 88 142 20 34 41 58 52 58 9 0 17 -4 17 -9z m60 2 c0 -7 -289 -453 -323
-498 -8 -11 -18 -17 -22 -13 -8 7 43 95 112 194 24 34 43 64 43 67 0 17 165
257 176 257 8 0 14 -3 14 -7z m60 -328 c-7 -179 -17 -325 -21 -325 -18 0 -20
59 -10 346 8 219 14 299 23 305 7 4 14 6 17 3 2 -2 -2 -150 -9 -329z m222 323
c2 -6 -43 -130 -101 -275 -95 -236 -106 -260 -109 -224 -3 37 53 188 170 464
20 47 33 58 40 35z m-267 -215 c-8 -274 -15 -355 -27 -323 -14 38 -6 470 10
498 7 12 15 22 18 22 3 0 2 -89 -1 -197z m-1409 -130 c4 -202 3 -293 -4 -293
-13 0 -20 98 -27 390 -5 198 -4 223 9 210 12 -12 16 -70 22 -307z m1710 292
c3 -8 -24 -88 -61 -177 -36 -90 -91 -224 -122 -298 -30 -74 -60 -139 -65 -145
-25 -25 10 92 74 250 38 93 88 218 111 278 41 105 52 121 63 92z m-1013 -29
c10 -8 48 -105 92 -237 72 -216 76 -238 43 -239 -4 0 -23 48 -42 108 -19 59
-56 167 -81 241 -25 74 -45 136 -45 138 0 7 16 2 33 -11z m26 -228 c41 -123
74 -230 75 -238 1 -8 -9 -16 -20 -18 -16 -2 -23 3 -27 20 -2 13 -19 67 -36
121 -78 243 -91 293 -86 315 3 12 9 22 13 22 4 0 40 -100 81 -222z m1021 193
c0 -15 -30 -90 -85 -216 -7 -16 -41 -97 -74 -180 -34 -82 -69 -164 -77 -182
-7 -17 -14 -36 -14 -42 0 -6 -4 -11 -9 -11 -17 0 -19 25 -4 60 8 19 44 107 80
195 36 88 73 178 83 200 9 22 32 77 50 122 31 76 50 97 50 54z m338 -15 c-3
-3 -108 -59 -311 -165 -97 -51 -98 -51 -83 -22 12 23 54 49 203 124 143 73
189 92 191 81 2 -9 2 -17 0 -18z m-1289 -14 c5 -9 22 -64 39 -122 17 -58 42
-142 55 -188 22 -72 23 -83 9 -80 -12 2 -36 62 -84 203 -36 110 -67 206 -67
213 -1 17 35 -2 48 -26z m-674 18 c6 -9 -72 -520 -80 -528 -19 -20 -15 45 17
265 20 142 37 261 38 266 0 10 18 9 25 -3z m50 -64 c-3 -17 -24 -134 -45 -260
-21 -125 -41 -231 -44 -233 -15 -15 -22 12 -15 54 4 27 22 136 39 243 39 248
37 241 56 233 12 -4 14 -14 9 -37z m1895 -5 c-13 -9 -69 -40 -124 -69 -56 -29
-142 -76 -193 -103 -51 -27 -95 -49 -97 -49 -3 0 -1 10 5 23 6 13 37 37 72 55
34 17 127 65 207 107 92 47 146 70 149 63 2 -7 -6 -19 -19 -27z m-1854 5 c3
-7 -11 -103 -30 -212 -19 -110 -38 -219 -41 -244 -4 -25 -11 -52 -15 -60 -7
-13 -10 -12 -16 3 -8 21 77 527 89 527 4 0 10 -6 13 -14z m1882 -42 c-2 -8
-108 -69 -236 -135 -176 -91 -233 -116 -230 -102 3 18 32 35 308 180 69 36
129 69 134 74 13 11 28 0 24 -17z m-1458 -6 c0 -25 -6 -31 -205 -243 -72 -77
-159 -169 -193 -205 -49 -52 -63 -63 -73 -52 -11 10 -4 21 32 60 25 26 62 65
82 87 20 22 105 115 189 207 84 92 156 167 161 167 4 1 7 -9 7 -21z m1460 -47
c0 -14 -57 -47 -251 -146 -138 -69 -253 -125 -255 -122 -14 13 50 53 262 162
131 69 240 124 242 125 1 0 2 -8 2 -19z m-831 -33 c38 -82 214 -473 227 -505
11 -26 12 -33 2 -33 -7 0 -20 15 -27 33 -13 28 -84 182 -182 394 -47 103 -59
135 -53 144 9 15 13 11 33 -33z m-609 17 c0 -15 -23 -42 -142 -170 -25 -27
-57 -62 -70 -76 -149 -164 -213 -229 -222 -226 -28 9 -16 25 169 223 272 291
265 284 265 249z m625 -165 c37 -80 85 -183 107 -230 45 -94 78 -169 78 -176
0 -2 -6 -4 -12 -4 -7 0 -31 40 -53 88 -21 48 -54 119 -71 157 -18 39 -55 119
-82 179 -28 60 -48 115 -45 123 3 8 7 12 9 11 2 -2 33 -69 69 -148z m816 113
c2 -55 9 -20 -86 -438 -57 -249 -82 -328 -97 -302 -8 15 -2 44 71 362 81 349
95 405 103 405 4 0 9 -12 9 -27z m-1421 -9 c0 -24 -389 -444 -406 -437 -8 3
-14 8 -14 12 0 7 3 10 174 196 238 259 246 266 246 229z m1343 -141 c-19 -82
-52 -227 -74 -323 -22 -96 -42 -176 -44 -178 -2 -2 -8 12 -13 31 -8 29 1 82
56 318 36 156 70 287 76 291 32 22 32 2 -1 -139z m-823 128 c0 -8 90 -209 209
-466 11 -22 17 -43 14 -47 -9 -16 -29 -7 -40 20 -112 263 -203 482 -203 491 0
6 5 11 10 11 6 0 10 -4 10 -9z m785 -33 c-3 -13 -27 -120 -55 -239 -27 -119
-50 -220 -51 -225 -1 -5 -7 8 -13 30 -10 32 -9 52 6 120 10 44 29 133 43 196
16 72 32 120 42 128 25 18 34 15 28 -10z m-1285 -10 c0 -13 -27 -46 -98 -123
-31 -34 -91 -99 -132 -145 -41 -46 -88 -98 -105 -117 -21 -23 -34 -30 -44 -24
-12 8 -10 13 6 35 20 25 155 173 278 304 33 35 64 70 68 78 9 15 27 10 27 -8z
m525 -125 c31 -76 66 -156 76 -178 46 -104 77 -184 72 -189 -19 -18 -35 6 -78
117 -27 67 -70 177 -97 245 -49 126 -54 142 -40 142 5 0 35 -62 67 -137z
m-505 64 c0 -12 -22 -40 -93 -117 -23 -25 -86 -94 -140 -153 -89 -96 -127
-125 -127 -97 0 5 64 80 143 166 78 87 155 172 170 191 27 32 47 36 47 10z
m1064 -89 c79 -349 123 -574 116 -588 -11 -20 -11 -20 -51 150 -17 74 -51 216
-74 315 -42 173 -44 194 -14 195 4 0 14 -33 23 -72z m-1044 33 c0 -8 -34 -48
-180 -211 -37 -41 -80 -90 -95 -107 -26 -32 -49 -41 -59 -25 -2 4 12 26 32 48
267 296 302 330 302 295z m988 -38 c6 -27 28 -118 48 -203 20 -85 51 -216 69
-290 30 -122 31 -161 5 -134 -13 14 -172 645 -166 660 11 29 33 13 44 -33z
m12 -294 c39 -156 73 -292 76 -301 4 -13 0 -18 -14 -18 -21 0 -14 -23 -120
380 -68 256 -65 237 -45 249 23 12 17 29 103 -310z m-602 289 c-3 -7 -42 -21
-89 -30 -46 -9 -157 -32 -246 -51 -90 -18 -163 -30 -163 -26 0 19 43 32 221
69 107 22 199 42 204 44 25 10 77 6 73 -6z m512 -178 c23 -91 57 -219 75 -285
29 -107 31 -145 5 -119 -12 13 -160 508 -160 536 0 26 20 53 30 41 4 -5 26
-82 50 -173z m-495 139 c13 -20 28 -16 -329 -90 -132 -27 -241 -48 -243 -46
-2 2 5 12 16 21 12 11 90 32 213 57 106 22 222 46 258 54 36 7 68 14 72 14 4
1 10 -4 13 -10z m20 -58 c0 -11 -78 -30 -319 -78 -175 -35 -321 -61 -324 -59
-16 16 47 36 233 74 116 24 246 51 290 61 92 22 120 22 120 2z m450 -218 c37
-126 70 -234 73 -241 2 -7 -4 -12 -16 -12 -11 0 -23 8 -26 18 -2 9 -16 55 -30
102 -81 276 -94 322 -89 340 3 11 9 20 13 20 4 0 38 -102 75 -227z m-565 77
c171 -37 199 -48 200 -75 0 -6 -97 13 -225 45 -124 30 -225 58 -225 63 0 15
71 6 250 -33z m-46 -44 c142 -35 260 -67 263 -70 19 -19 -20 -21 -82 -6 -38
10 -168 41 -288 70 -133 33 -213 57 -205 62 23 14 51 9 312 -56z m-244 8 c80
-19 210 -51 290 -70 182 -44 181 -44 152 -55 -17 -6 -99 10 -310 62 -158 38
-296 73 -307 76 l-20 6 20 8 c11 4 22 8 25 8 3 1 70 -15 150 -35z m65 -65
c349 -85 325 -78 303 -90 -11 -6 -77 5 -215 37 -109 25 -247 57 -308 71 -145
32 -140 30 -124 49 7 9 21 13 33 10 12 -3 152 -38 311 -77z m723 44 c-2 -12
-48 -36 -143 -75 -408 -168 -375 -156 -375 -135 0 8 28 26 63 40 34 14 134 55
222 92 88 36 174 72 190 80 40 18 47 18 43 -2z m585 -19 c9 -9 -233 -485 -250
-491 -8 -3 -16 -3 -19 0 -9 9 237 497 250 497 7 0 15 -3 19 -6z m-573 -27 c0
-7 -19 -21 -42 -31 -24 -10 -61 -27 -84 -37 -22 -10 -63 -27 -91 -38 -28 -11
-70 -29 -94 -40 -106 -48 -172 -72 -187 -66 -9 3 -12 9 -6 15 7 6 488 208 502
210 1 0 2 -6 2 -13z m620 -5 c0 -5 -85 -173 -175 -347 -29 -55 -60 -101 -69
-103 -20 -4 -25 -14 109 249 73 147 113 215 122 212 7 -3 13 -8 13 -11z
m-1621 -31 c10 -17 2 -21 -92 -47 -56 -15 -154 -42 -217 -59 -80 -23 -119 -29
-128 -22 -7 5 -10 13 -6 16 7 8 394 128 416 130 10 0 22 -7 27 -18z m1021 -17
c0 -8 -4 -14 -9 -14 -10 0 -405 -164 -433 -180 -22 -12 -58 -13 -58 -1 0 10
482 220 493 214 4 -2 7 -11 7 -19z m-984 -35 c3 -6 2 -14 -4 -18 -6 -3 -101
-31 -211 -60 -184 -50 -203 -53 -217 -39 -18 18 -32 13 231 83 77 20 145 39
150 40 22 7 44 4 51 -6z m992 -23 c-1 -1 -66 -29 -143 -61 -77 -32 -153 -64
-170 -71 -119 -51 -151 -62 -160 -53 -13 13 -4 19 155 85 74 31 176 74 225 95
73 30 91 35 93 23 2 -9 2 -17 0 -18z m-961 -32 c3 -10 -362 -124 -398 -124 -9
0 -22 7 -29 15 -10 12 -7 15 17 21 15 4 102 29 193 55 163 47 210 54 217 33z
m981 -1 c-4 -21 -440 -208 -464 -199 -11 4 -14 10 -8 16 10 10 452 198 467
199 5 1 7 -6 5 -16z m-954 -39 c4 -9 5 -18 4 -19 -6 -5 -343 -108 -369 -112
-15 -3 -30 1 -38 11 -11 13 -3 18 61 37 40 12 129 38 198 59 150 46 137 44
144 24z m911 -184 c115 -38 213 -74 219 -80 37 -37 -140 10 -474 126 -13 4
-13 6 0 14 25 16 37 13 255 -60z m-601 -20 c301 -26 289 -24 294 -40 4 -10
-11 -12 -74 -7 -44 4 -169 12 -279 18 -110 6 -201 13 -203 14 -4 3 9 35 15 35
3 0 114 -9 247 -20z"/>
</g>
</svg>
