<?xml version="1.0" standalone="no"?>
<!DOCTYPE svg PUBLIC "-//W3C//DTD SVG 20010904//EN"
 "http://www.w3.org/TR/2001/REC-SVG-20010904/DTD/svg10.dtd">
<svg version="1.0" xmlns="http://www.w3.org/2000/svg"
 width="300.000000pt" height="300.000000pt" viewBox="0 0 300.000000 300.000000"
 preserveAspectRatio="xMidYMid meet">
<metadata>
Created by potrace 1.10, written by Peter Selinger 2001-2011
</metadata>
<g transform="translate(0.000000,300.000000) scale(0.100000,-0.100000)"
fill="#000000" stroke="none">
<path d="M20 2989 c-19 -8 -21 -12 -10 -19 15 -9 15 -88 0 -198 -5 -40 -5 -74
1 -89 6 -17 6 -30 -1 -38 -8 -9 -4 -11 15 -7 22 4 25 1 25 -22 0 -23 -3 -26
-27 -21 l-28 5 28 -11 c26 -10 27 -14 27 -80 l0 -69 -27 5 c-28 5 -28 5 -4 -5
46 -20 53 -31 35 -52 -12 -12 -24 -16 -38 -12 -17 5 -19 4 -8 -7 13 -14 15
-131 3 -184 -5 -20 -2 -38 8 -54 13 -21 13 -25 -2 -36 -16 -12 -16 -13 5 -19
13 -3 35 -6 50 -6 55 0 58 -5 58 -101 l0 -88 -68 -4 -67 -3 68 -2 c72 -2 87
-21 19 -23 -20 -1 -48 -5 -62 -9 -25 -9 70 -3 97 5 18 6 59 -35 71 -71 9 -29
8 -31 -44 -67 -29 -21 -56 -46 -59 -57 -4 -14 -17 -20 -48 -23 -23 -2 6 -4 66
-5 l107 -2 -1 -32 c-2 -81 -4 -82 -114 -89 l-100 -5 98 -2 97 -2 -3 -140 c-2
-77 -7 -143 -11 -148 -4 -4 -47 -10 -94 -13 l-87 -7 105 1 c58 0 111 -1 118
-2 17 -2 17 -130 0 -136 -7 -3 -60 -11 -118 -19 -58 -8 -88 -14 -67 -15 40 -1
45 -11 22 -51 -8 -14 -14 -37 -15 -52 0 -20 -6 -28 -22 -31 l-23 -4 23 -2 c20
-1 22 -6 22 -60 0 -54 -2 -60 -22 -63 -13 -2 20 -7 72 -11 142 -12 137 -9 161
-89 19 -62 23 -157 8 -172 -2 -3 -62 -9 -134 -14 l-130 -11 135 5 c119 5 141
3 181 -14 44 -19 45 -21 62 -91 16 -66 16 -73 1 -96 -21 -33 -61 -40 -230 -40
-78 0 -137 -3 -130 -7 6 -4 18 -8 28 -8 20 0 40 -51 27 -71 -5 -8 -8 -41 -7
-74 l1 -60 6 67 c3 36 9 69 13 73 3 4 44 9 90 12 53 4 101 14 133 28 34 15 58
19 75 14 14 -4 37 -10 51 -13 30 -6 42 -31 59 -118 11 -54 13 -58 38 -57 24 2
24 2 5 6 -15 3 -25 14 -29 31 -3 15 -12 52 -19 83 -11 43 -11 65 -3 90 6 19
12 40 14 47 3 9 45 12 169 12 l165 0 0 -25 c0 -13 12 -65 26 -115 14 -50 24
-94 21 -97 -3 -3 -45 -10 -94 -15 -48 -5 -90 -12 -93 -15 -3 -2 33 -1 80 4
108 10 241 10 303 0 46 -8 48 -7 43 11 -10 31 10 69 38 74 14 3 63 -1 108 -9
46 -8 113 -13 151 -10 68 4 69 4 88 -27 10 -17 21 -35 23 -41 2 -6 6 -7 10 -4
3 3 -5 22 -19 43 l-25 36 18 68 17 67 85 13 c64 9 111 10 190 2 100 -10 106
-12 132 -43 15 -18 34 -39 41 -47 11 -13 10 -22 -6 -60 -10 -25 -26 -53 -34
-62 -9 -10 -12 -18 -7 -18 13 1 39 40 54 81 11 31 19 38 49 43 48 8 157 8 215
0 41 -6 46 -9 46 -33 1 -14 9 -42 20 -61 22 -39 26 -36 9 7 -7 15 -15 49 -19
75 -8 56 0 62 75 53 27 -3 72 -2 100 4 34 6 54 6 63 -1 8 -7 38 -8 81 -4 l69
6 17 -44 c10 -25 28 -55 41 -67 13 -12 24 -26 24 -29 0 -4 -33 -11 -72 -15
-40 -4 -68 -9 -61 -12 6 -2 43 0 81 5 43 6 88 6 121 0 29 -5 58 -7 64 -5 7 2
-15 8 -48 12 -52 7 -65 13 -96 47 -19 21 -41 55 -48 74 -22 60 2 68 194 69
l90 0 0 128 c0 97 -3 126 -12 122 -16 -6 -20 16 -28 147 l-6 108 25 12 c14 6
26 15 26 19 0 5 -14 0 -31 -10 -24 -15 -38 -17 -67 -10 -20 5 -58 9 -83 9 -42
0 -47 3 -62 35 -21 45 -23 105 -3 105 8 0 21 9 29 21 14 20 16 20 98 4 46 -8
92 -18 103 -21 11 -4 16 -2 12 4 -3 5 -27 13 -53 17 -27 3 -70 11 -96 17 l-48
10 3 46 3 47 97 0 c53 0 94 3 91 8 -2 4 -44 7 -93 7 l-88 0 -10 30 c-15 41 2
96 31 104 12 3 47 6 77 7 30 0 64 4 75 9 13 6 4 7 -26 3 -39 -5 -49 -2 -57 13
-17 35 -35 128 -35 185 1 90 5 95 76 106 l62 9 -32 19 c-40 24 -43 32 -36 83
5 39 6 40 34 32 18 -5 27 -5 24 1 -4 5 -15 9 -27 9 -16 0 -19 4 -14 23 3 12 9
42 12 67 11 97 15 111 27 105 7 -4 4 0 -5 8 -22 18 -23 25 -1 29 9 2 -25 4
-75 6 -125 3 -139 10 -148 67 -4 30 -2 61 6 85 14 43 20 44 170 54 30 2 7 3
-52 2 -96 -1 -109 1 -123 19 -17 20 -17 20 -9 0 8 -22 8 -43 -2 -97 -5 -33
-11 -39 -45 -48 -21 -6 -112 -9 -206 -8 l-168 3 -3 43 c-2 26 2 50 10 59 7 9
18 27 23 40 11 26 17 26 295 21 92 -1 322 21 333 32 9 10 9 11 -2 5 -12 -7
-267 -27 -335 -26 -16 0 -34 5 -40 11 -6 6 -12 62 -14 125 -4 111 -3 115 22
140 25 25 27 25 184 25 l160 0 12 -30 c7 -17 15 -29 17 -26 3 2 -1 14 -7 26
-8 14 -8 25 -2 33 8 9 -28 11 -154 9 l-164 -3 1 48 c1 62 8 77 39 80 14 1 83
7 154 13 71 6 132 12 134 15 3 3 0 5 -7 5 -9 0 -9 6 -1 23 11 21 10 21 -10 -2
-18 -21 -32 -25 -133 -32 -62 -5 -123 -10 -137 -11 -23 -3 -25 1 -28 44 l-3
46 53 6 c29 3 87 8 128 11 41 3 91 10 110 15 34 9 34 9 -8 5 -109 -13 -305
-26 -318 -21 -10 4 -14 22 -14 58 0 29 -4 70 -9 91 -6 26 -5 56 5 95 7 31 13
59 14 62 0 3 -70 4 -155 3 -152 -1 -156 -2 -175 -26 -16 -20 -31 -25 -91 -30
-40 -3 -123 -3 -186 0 l-114 6 6 31 6 31 -15 -32 c-19 -42 -62 -50 -171 -33
-46 7 -99 10 -118 7 -29 -4 -38 -1 -61 25 -15 17 -29 28 -32 25 -3 -3 9 -19
27 -35 32 -29 35 -53 10 -91 -16 -24 -243 -55 -304 -41 -37 8 -126 72 -132 94
-1 6 -8 27 -13 46 l-11 35 6 -37 c4 -30 2 -38 -10 -38 -11 0 -17 12 -20 38 -2
20 -4 -11 -5 -70 -2 -79 -5 -108 -14 -108 -34 0 -207 -30 -233 -40 -17 -7 -65
-13 -107 -14 -90 -3 -82 -14 -93 140 l-7 92 31 7 c17 3 33 10 36 15 3 5 -9 4
-27 -1 -22 -6 -53 -5 -91 2 -54 11 -59 10 -81 -10 -21 -20 -32 -21 -223 -21
-192 0 -201 1 -206 20 -6 22 -11 23 -47 9z m36 -26 c-3 -3 -13 -2 -23 2 -17 7
-17 8 2 15 19 7 34 -5 21 -17z m557 10 c4 -2 7 -17 7 -34 0 -23 -4 -29 -22
-29 -35 0 -102 21 -110 34 -6 8 -8 7 -8 -1 0 -9 -18 -13 -55 -13 -30 0 -55 5
-55 10 0 6 25 10 55 10 42 0 59 5 73 20 14 16 25 18 62 14 25 -3 48 -8 53 -11z
m1881 7 l133 0 -12 -45 c-6 -25 -16 -50 -21 -55 -7 -7 -62 -10 -144 -8 l-134
3 -9 34 c-7 27 -5 36 7 43 9 5 16 16 16 25 0 10 6 13 16 9 9 -3 75 -6 148 -6z
m-2131 -87 c8 -89 3 -211 -9 -223 -18 -18 -134 -30 -231 -23 -90 6 -92 7 -102
34 -6 18 -6 51 -1 91 5 35 10 86 10 114 0 28 3 54 7 57 3 4 77 7 163 7 l157 0
6 -57z m1370 41 c40 -7 47 -25 23 -56 -11 -15 -29 -18 -95 -18 -44 0 -81 2
-81 4 0 2 7 20 15 40 14 33 18 36 58 36 23 0 59 -3 80 -6z m352 -12 c6 -4 22
-33 36 -65 24 -53 25 -61 13 -95 -7 -20 -13 -49 -14 -64 0 -35 -26 -40 -180
-36 l-114 3 -11 35 c-6 19 -17 49 -24 65 -38 87 -38 86 -22 121 14 29 21 33
66 36 95 8 240 8 250 0z m214 -24 c9 -26 9 -34 -4 -40 -8 -5 -15 -18 -15 -28
0 -14 -7 -20 -22 -20 -13 0 -40 -3 -60 -6 l-37 -6 -26 57 c-14 32 -25 59 -25
61 0 3 66 10 132 12 43 2 47 0 57 -30z m-1722 6 c48 -7 50 -11 55 -104 l3 -65
-127 -3 c-98 -2 -128 0 -130 10 0 7 -2 51 -2 97 l-1 83 80 -6 c44 -3 99 -9
122 -12z m591 -29 c30 -25 66 -48 81 -51 14 -3 32 -7 39 -10 15 -4 16 -48 0
-91 l-12 -33 -71 0 c-101 0 -105 5 -112 128 -5 80 -3 102 7 102 7 0 38 -20 68
-45z m1187 -42 c-9 -37 -16 -43 -43 -37 -42 11 -20 64 26 64 21 0 23 -3 17
-27z m260 -36 c12 -115 19 -109 -127 -111 l-128 -2 0 66 c0 115 -6 110 130
110 l118 0 7 -63z m-855 21 c6 -18 19 -51 28 -73 17 -39 23 -117 11 -130 -18
-17 -147 -26 -294 -20 l-160 8 -31 41 c-28 38 -29 44 -18 71 7 17 13 44 14 62
0 28 4 33 33 37 171 27 235 34 313 35 l92 1 12 -32z m567 -31 c19 -2 22 -9 25
-59 l3 -56 -82 -7 c-94 -8 -143 0 -143 21 0 8 5 35 11 59 10 41 14 44 48 48
32 4 52 3 138 -6z m-1243 -23 c3 -9 6 -26 6 -39 0 -20 -6 -25 -37 -30 -21 -3
-68 -11 -105 -18 -49 -10 -68 -10 -72 -2 -5 13 -86 47 -86 36 0 -4 18 -14 40
-21 32 -11 40 -18 41 -39 2 -58 -3 -206 -7 -211 -10 -9 -130 -17 -192 -12 -57
4 -63 7 -68 31 -3 14 -11 44 -18 66 -8 23 -10 48 -5 60 4 11 10 40 14 65 9 70
12 73 111 75 49 2 116 10 150 19 58 16 154 32 200 35 12 0 25 -6 28 -15z
m-489 -61 c-4 -10 -10 -42 -14 -70 -4 -29 -10 -56 -13 -59 -4 -3 -27 4 -53 15
-25 11 -62 23 -81 27 -39 7 -67 47 -57 82 5 21 11 22 115 22 101 0 110 -1 103
-17z m627 -23 c56 0 58 -1 87 -43 l30 -44 -21 -34 c-11 -19 -34 -51 -50 -72
l-30 -38 -132 7 c-79 3 -150 12 -179 22 l-48 16 3 79 c1 52 6 81 14 84 37 14
176 31 219 28 28 -3 76 -5 107 -5z m1444 -13 c3 -3 3 -55 -1 -114 -7 -103 -9
-109 -36 -131 -22 -18 -32 -20 -46 -12 -10 6 -54 14 -98 18 l-80 7 -3 106 c-4
143 -5 142 145 137 62 -3 116 -7 119 -11z m-273 -74 c-7 -186 -13 -223 -39
-239 -16 -11 -33 -14 -51 -9 -16 4 -82 7 -148 6 -66 0 -125 2 -131 6 -5 5 -16
45 -23 91 -11 68 -11 93 0 141 l13 59 60 4 c34 2 118 4 188 4 69 -1 121 2 115
6 -8 5 -7 8 3 8 13 0 15 -14 13 -77z m-2020 53 c5 -13 -19 -26 -50 -26 -21 0
-15 16 10 28 30 14 34 14 40 -2z m1623 -24 c-4 -15 -9 -48 -13 -74 l-6 -48
-83 0 -84 0 0 58 c0 100 -2 97 102 94 l90 -3 -6 -27z m-1699 -82 c-7 -136 -2
-130 -112 -130 -51 0 -100 3 -109 6 -13 5 -16 25 -16 114 l0 107 121 -1 121
-1 -5 -95z m128 66 c100 -27 142 -52 153 -88 20 -65 20 -76 3 -80 -35 -9 -270
5 -274 16 -2 6 -2 43 1 83 4 64 7 72 26 76 37 7 40 7 91 -7z m1375 -38 l0 -33
-108 -1 c-102 -1 -109 1 -125 23 l-18 23 68 1 c56 1 111 6 176 18 4 0 7 -14 7
-31z m-294 16 c16 -3 39 -19 52 -34 19 -24 21 -36 16 -70 -4 -23 -15 -49 -24
-58 -25 -25 -40 -57 -40 -87 l0 -27 -96 4 c-93 3 -97 4 -120 33 -13 17 -29 46
-34 65 -8 29 -7 39 10 60 11 14 33 46 48 72 l27 48 66 0 c37 0 79 -3 95 -6z
m282 -63 c14 -8 14 -13 9 -107 -4 -81 -16 -96 -76 -88 -29 3 -61 0 -86 -9 -22
-8 -57 -12 -79 -9 -37 4 -38 5 -33 39 3 18 17 47 30 63 14 16 28 47 32 69 6
35 10 40 38 44 61 7 152 7 165 -2z m196 -47 c3 -9 9 -40 12 -69 6 -48 5 -53
-15 -60 -12 -4 -55 -4 -96 0 -71 7 -74 8 -80 35 -3 16 -1 47 5 69 l11 41 78 0
c63 0 80 -3 85 -16z m-1059 -8 c24 -10 35 -21 35 -36 0 -17 -3 -19 -19 -10
-11 5 -29 10 -40 10 -16 0 -21 6 -21 25 0 29 0 29 45 11z m253 -25 c63 -6 64
-6 77 -45 8 -21 18 -43 24 -49 20 -20 11 -33 -36 -56 -40 -18 -62 -21 -132
-19 -62 2 -86 7 -91 18 -49 97 -56 117 -49 138 8 20 15 22 76 21 37 -1 97 -4
131 -8z m1306 -25 c97 -9 115 -17 109 -49 -4 -22 -11 -25 -70 -30 -78 -6 -122
6 -127 36 -7 37 -6 72 2 61 4 -6 43 -14 86 -18z m-2145 -1 c-9 -9 -23 -13 -32
-9 -24 9 -11 24 21 24 24 0 25 -2 11 -15z m182 9 l36 -6 0 -94 -1 -94 -65 0
c-36 0 -83 5 -103 10 l-36 10 -4 73 c-5 94 5 107 81 107 31 0 72 -3 92 -6z
m137 -4 c43 -6 100 -6 142 -1 44 6 84 5 110 -1 34 -9 43 -17 64 -62 13 -28 27
-60 30 -72 11 -37 -28 -44 -238 -44 l-193 0 -6 34 c-6 38 3 156 12 156 3 0 39
-5 79 -10z m-327 -40 c9 -14 7 -83 -7 -219 l-6 -54 -135 5 c-114 4 -138 7
-148 22 -10 12 -12 45 -7 118 5 93 7 104 31 125 25 22 32 23 144 21 91 -2 120
-6 128 -18z m2059 -20 c0 -5 -5 -10 -11 -10 -5 0 -7 5 -4 10 3 6 8 10 11 10 2
0 4 -4 4 -10z m-479 -29 c14 -1 16 -9 11 -48 -2 -27 -6 -49 -7 -51 -2 -2 -22
2 -45 9 -50 15 -99 71 -81 92 8 10 23 12 58 6 27 -4 55 -8 64 -8z m195 9 l75
0 -3 -146 -3 -146 -116 -2 -116 -1 -7 117 c-4 65 -4 128 -1 141 6 23 56 48 83
41 8 -2 47 -4 88 -4z m192 -5 c2 -2 -20 -6 -48 -10 -52 -7 -75 -1 -51 14 11 7
89 4 99 -4z m214 -5 l77 1 3 -93 c2 -54 -1 -96 -7 -100 -14 -11 -134 -10 -235
2 -49 5 -101 6 -122 1 l-38 -9 0 89 0 89 28 0 c15 1 54 7 87 15 33 7 76 11 95
8 19 -2 70 -4 112 -3z m-724 -43 c12 -11 22 -24 22 -29 0 -5 -44 -7 -97 -6
-92 3 -98 4 -101 25 -3 17 4 24 30 32 47 14 119 3 146 -22z m-319 13 c58 0
113 -5 121 -10 16 -10 19 -116 5 -176 -7 -30 -10 -32 -65 -38 -67 -8 -134 -1
-233 21 -55 13 -70 21 -81 42 -16 32 -26 94 -18 108 15 23 107 63 136 58 16
-3 76 -5 135 -5z m-285 -55 c-3 -8 -13 -16 -22 -19 -27 -8 -161 -10 -169 -3
-15 15 -25 6 -11 -10 26 -30 43 -90 31 -105 -14 -16 -44 -101 -38 -106 5 -6
25 44 25 63 0 7 8 22 18 33 14 17 31 21 102 24 47 1 91 -1 98 -5 18 -12 15
-74 -5 -109 -17 -29 -20 -30 -68 -22 -68 10 -408 4 -419 -7 -6 -5 -16 -9 -23
-9 -10 0 -12 23 -9 108 3 59 5 109 5 112 1 3 43 6 94 6 81 1 100 5 157 32 56
26 76 31 152 31 73 1 86 -1 82 -14z m-771 -21 c23 -5 27 -11 27 -43 0 -50 -8
-58 -64 -66 l-49 -8 6 56 c7 67 13 80 35 73 10 -3 29 -8 45 -12z m1461 4 c52
-14 56 -22 56 -120 l0 -68 -107 1 c-60 1 -133 4 -163 7 l-55 7 2 40 c1 22 5
64 9 93 l6 52 104 0 c57 0 124 -5 148 -12z m-974 -10 c-30 -13 -163 -16 -205
-5 -22 6 -27 5 -19 -3 10 -10 10 -227 0 -237 -2 -2 -39 -9 -82 -16 -108 -16
-141 -7 -149 46 -4 21 -4 78 0 127 l7 89 57 3 c31 2 137 4 236 5 137 1 174 -1
155 -9z m290 -43 c0 -40 -11 -45 -95 -45 -60 0 -63 1 -71 28 -4 15 -8 32 -8
37 -1 9 149 24 167 17 4 -2 7 -18 7 -37z m1157 -45 l24 0 -22 -40 c-24 -43
-53 -55 -120 -48 -33 3 -34 5 -34 43 0 38 2 40 35 47 19 3 48 4 64 2 16 -2 39
-4 53 -4z m-2235 -26 c53 -9 40 -33 -15 -27 -57 6 -69 11 -62 23 7 11 25 12
77 4z m322 -100 c4 -59 4 -110 -1 -115 -11 -11 -243 -16 -268 -6 -19 8 -19 8
0 -5 12 -7 19 -21 17 -30 -4 -21 -13 -23 -30 -6 -17 17 -16 218 0 241 11 13
34 17 123 20 61 1 120 4 131 5 20 2 22 -4 28 -104z m846 86 c19 -6 66 -15 103
-19 80 -11 99 -28 86 -75 -5 -17 -7 -38 -4 -47 8 -25 -108 -64 -126 -43 -6 8
-30 19 -52 25 -22 6 -50 17 -63 26 l-23 15 20 31 c10 18 19 47 19 65 0 17 1
32 3 32 1 0 18 -5 37 -10z m315 -30 c6 -10 -11 -15 -77 -24 -25 -3 -38 0 -42
9 -3 10 5 15 27 18 62 8 86 7 92 -3z m270 -34 c1 0 -1 -29 -3 -63 l-4 -61 -80
-7 c-66 -6 -100 -3 -187 16 -58 13 -109 28 -113 34 -8 9 -1 65 9 75 11 12 119
17 243 12 74 -2 135 -5 135 -6z m456 -36 c3 -25 4 -64 1 -87 l-5 -43 -132 0
c-72 0 -173 3 -223 6 l-92 7 0 56 c0 89 6 99 54 104 22 3 120 4 216 3 l175 -1
6 -45z m-1233 -115 c2 -60 0 -137 -3 -171 l-6 -61 -144 1 c-79 1 -145 3 -148
6 -6 6 -11 153 -9 252 l2 77 108 4 c59 2 127 3 152 3 l45 -1 3 -110z m-321 99
c-3 -3 -12 -4 -19 -1 -8 3 -5 6 6 6 11 1 17 -2 13 -5z m458 -27 c17 -9 51 -26
78 -37 l47 -22 0 -122 0 -123 -67 -9 c-41 -5 -93 -5 -132 0 l-63 10 6 44 c3
25 6 100 6 167 l0 121 48 -6 c26 -4 61 -14 77 -23z m-457 -141 c0 -174 4 -166
-83 -166 -35 0 -45 6 -102 66 l-64 67 3 81 3 81 65 11 c36 6 90 12 121 13 l57
1 0 -154z m1990 115 c9 -36 8 -40 -12 -45 -40 -11 -54 -6 -74 28 l-20 34 42
10 c22 5 44 10 47 11 4 0 11 -17 17 -38z m-2267 19 c14 -8 19 -21 19 -50 0
-45 1 -44 -34 -30 -22 8 -26 16 -26 50 0 41 8 47 41 30z m1947 -60 l-22 -60
-36 6 c-19 4 -38 12 -42 18 -10 14 -10 80 -1 89 3 4 32 7 64 7 l58 0 -21 -60z
m220 20 c33 -49 28 -128 -13 -170 -21 -22 -32 -27 -45 -20 -10 5 -39 14 -66
20 -27 6 -65 17 -85 26 -41 18 -41 16 1 127 l22 58 81 -3 c80 -3 82 -3 105
-38z m-1100 9 c93 -16 102 -29 102 -137 l0 -88 -62 -13 c-35 -7 -81 -17 -103
-21 -22 -5 -61 -9 -87 -10 l-48 0 0 123 0 123 48 16 c59 20 71 21 150 7z m302
-30 c0 -10 -25 -16 -100 -23 -30 -2 -62 -7 -71 -11 -10 -4 -19 2 -26 17 l-10
23 103 2 c57 1 104 -3 104 -8z m1088 -20 c21 -8 22 -13 16 -66 -3 -32 -12 -83
-19 -113 -8 -30 -16 -67 -20 -82 l-5 -27 -150 -3 c-83 -2 -155 -1 -160 0 -6 2
-10 26 -10 53 0 44 4 53 41 88 35 34 41 47 46 94 5 53 6 54 47 63 46 10 179 6
214 -7z m-2504 2 c3 -4 19 -11 36 -14 27 -6 30 -10 30 -46 0 -26 -5 -41 -16
-45 -9 -3 -78 -6 -154 -6 l-139 0 -7 46 c-3 25 -3 49 2 54 15 15 240 25 248
11z m1540 -7 c21 -8 21 -58 0 -75 -20 -16 -44 -63 -44 -86 0 -17 -11 -18 -135
-15 l-135 3 0 74 0 74 53 10 c87 18 231 26 261 15z m341 -14 c3 -5 5 -10 3
-10 -2 0 -57 -7 -123 -15 -66 -8 -137 -15 -157 -15 -34 0 -38 3 -38 25 l0 25
154 0 c93 0 157 -4 161 -10z m80 -32 c3 -3 0 -27 -5 -54 -6 -27 -13 -68 -17
-91 -5 -39 -8 -42 -42 -47 -67 -10 -215 -11 -307 -2 l-92 8 5 41 c3 23 15 60
27 82 l21 40 90 7 c50 4 119 12 155 17 63 9 156 9 165 -1z m100 -82 c22 -4 55
-12 72 -17 28 -9 31 -13 23 -29 -6 -10 -10 -39 -10 -63 l0 -44 -77 -6 c-70 -5
-80 -4 -100 15 -26 24 -29 64 -11 132 11 44 12 44 37 32 14 -8 44 -16 66 -20z
m-1965 11 c37 -30 92 -109 83 -118 -7 -7 -51 -6 -129 0 -65 6 -125 11 -131 11
-14 0 -17 30 -7 78 6 31 8 31 73 35 36 2 73 4 81 5 8 1 22 -4 30 -11z m-201
-8 c-6 -4 -7 -8 -2 -10 5 -2 7 -23 5 -46 l-4 -43 -124 0 c-143 0 -146 4 -60
71 50 38 53 39 123 37 40 -1 68 -5 62 -9z m1584 -65 c9 -3 12 -14 9 -30 -4
-23 -8 -24 -72 -24 -37 0 -128 -3 -203 -7 -133 -6 -137 -6 -137 14 0 21 30 38
80 46 39 7 307 8 323 1z m-877 -33 c35 -1 40 -9 50 -79 l6 -48 -69 -13 c-67
-14 -286 -16 -365 -5 l-38 6 0 56 c0 32 4 62 8 69 10 16 178 22 408 14z m464
-50 l0 -58 -41 -7 c-36 -6 -109 -2 -165 9 -19 4 -79 83 -70 92 3 3 58 8 123
13 65 4 126 8 136 9 14 1 17 -8 17 -58z m-292 27 c12 -11 52 -80 52 -92 0 -3
-12 -12 -27 -20 -22 -11 -39 -12 -79 -3 l-52 11 -6 48 c-4 26 -10 56 -13 65
-6 14 0 15 52 9 32 -4 65 -12 73 -18z m-650 -4 l52 -7 0 -56 c0 -31 -4 -61 -8
-66 -15 -22 -120 -33 -255 -28 -75 3 -141 9 -148 13 -9 6 -9 18 0 53 6 25 11
60 11 78 l0 32 148 -6 c81 -4 171 -10 200 -13z m1580 -9 c66 -2 82 -24 70 -95
-4 -25 -10 -61 -13 -81 -4 -29 -12 -39 -33 -47 -32 -11 -272 -40 -289 -35 -18
7 -21 35 -15 152 l5 110 31 4 c17 3 67 2 111 0 44 -3 104 -7 133 -8z m241 -4
c9 -17 5 -19 -50 -24 -33 -4 -70 -9 -82 -12 -18 -5 -26 -1 -35 19 l-11 25 67
4 c37 2 75 4 84 5 10 1 22 -6 27 -17z m-529 -15 c0 -22 -5 -25 -52 -31 -29 -3
-105 -5 -168 -3 -110 3 -115 4 -118 25 -3 21 0 22 95 26 264 8 243 10 243 -17z
m796 -39 c10 -17 7 -57 -12 -174 l-5 -31 -97 4 c-53 3 -143 6 -200 8 -129 4
-135 10 -122 110 5 38 13 73 19 79 18 18 82 24 246 24 146 -1 161 -3 171 -20z
m269 13 c4 -6 -9 -10 -33 -10 -21 0 -79 -3 -129 -6 -78 -6 -91 -5 -96 10 -6
14 7 16 123 16 75 0 131 -4 135 -10z m-1305 -36 c0 -9 -12 -14 -34 -14 -42 0
-66 8 -66 24 0 7 17 10 50 8 35 -3 50 -8 50 -18z m235 -86 c-2 -62 -4 -116 -4
-120 -1 -10 -131 -10 -183 -2 l-38 7 0 108 0 108 93 4 c50 1 102 4 114 5 22 2
22 1 18 -110z m1002 79 c6 -14 7 -44 2 -82 -10 -73 -32 -94 -104 -96 -47 -2
-98 0 -101 4 -1 1 4 43 10 92 l11 90 60 6 c110 11 111 10 122 -14z m98 9 c19
-13 17 -15 -19 -22 -39 -7 -66 2 -74 24 -5 17 70 15 93 -2z m-1542 -12 c62 -3
133 -7 160 -10 l47 -6 0 -89 0 -89 -194 2 c-222 3 -206 -5 -206 100 0 49 3 59
23 69 12 7 26 18 30 26 5 7 13 11 18 7 6 -3 61 -8 122 -10z m-242 -24 l36 -10
7 -126 c4 -69 5 -129 1 -132 -6 -6 -226 -4 -232 1 -6 7 -24 180 -21 212 3 36
6 40 43 51 50 16 119 17 166 4z m-293 -16 c39 -3 72 -10 72 -15 0 -13 -190
-11 -267 2 -131 23 -25 30 195 13z m-460 -30 c62 -6 62 -6 62 -37 0 -67 -6
-72 -88 -92 -42 -9 -93 -26 -113 -36 -44 -22 -75 -15 -83 17 -4 13 -3 54 0 91
l6 68 77 -3 c42 -1 104 -5 139 -8z m388 0 l141 -6 7 -77 c4 -42 9 -90 12 -107
6 -31 5 -31 -47 -37 -29 -4 -137 -4 -240 0 l-187 6 -7 35 c-3 19 -3 68 0 108
7 72 8 74 39 84 17 5 56 7 86 5 30 -2 119 -7 196 -11z m1426 -236 c2 -81 0
-149 -4 -153 -5 -5 -153 -10 -309 -10 -3 0 -24 263 -21 272 6 18 23 22 145 34
62 6 123 16 137 23 41 20 48 -3 52 -166z m628 120 c1 -18 9 -57 19 -85 l18
-53 -26 0 c-14 0 -37 -3 -50 -7 l-24 -6 5 72 c4 49 11 78 23 91 26 28 35 25
35 -12z m-310 5 c74 -3 160 -5 191 -4 l55 2 -3 -106 c-1 -59 -5 -111 -8 -116
-4 -5 -17 -9 -30 -9 -13 0 -26 -4 -29 -9 -3 -4 -38 -3 -78 4 -113 20 -144 30
-138 46 2 8 6 47 8 87 4 71 5 74 33 84 40 14 31 20 -11 8 -23 -7 -38 -6 -47 1
-9 9 -13 8 -13 0 0 -6 7 -14 15 -17 18 -7 21 -120 4 -158 -16 -33 -27 -37
-145 -42 l-101 -5 -6 53 c-4 29 -7 83 -7 120 0 78 2 79 110 72 36 -3 126 -7
200 -11z m-660 -2 c0 -12 -20 -25 -27 -18 -7 7 6 27 18 27 5 0 9 -4 9 -9z
m-1416 -57 c3 -26 6 -86 6 -135 l0 -87 -63 -7 c-35 -4 -88 -3 -118 2 l-54 8 0
75 c1 127 7 135 140 174 78 23 81 22 89 -30z m987 40 l74 -7 -2 -141 -1 -141
-74 -3 c-40 -2 -92 -1 -114 3 l-42 6 -36 96 c-40 107 -48 179 -18 186 27 7
132 8 213 1z m415 -19 c7 -2 14 -45 18 -107 4 -57 10 -114 13 -127 l6 -24
-178 5 c-134 4 -179 9 -186 19 -10 16 -12 156 -3 212 l7 38 156 -6 c86 -4 161
-8 167 -10z m-1637 -45 c5 0 6 -11 3 -25 -4 -21 -9 -24 -26 -19 -27 8 -26 6
-19 33 4 14 11 20 20 17 8 -3 18 -6 22 -6z m578 -54 c4 -4 -14 -49 -40 -101
l-47 -95 -114 0 c-133 0 -126 -8 -126 129 l0 84 160 -5 c89 -3 164 -8 167 -12z
m442 -80 l34 -88 -43 -43 c-24 -24 -65 -53 -91 -65 -60 -25 -176 -40 -249 -31
-49 6 -61 13 -109 60 l-54 53 47 96 c55 116 44 111 276 107 l155 -2 34 -87z
m1438 -41 c19 -4 21 -11 20 -57 0 -29 3 -87 7 -129 l9 -76 -59 -8 c-33 -4 -94
-8 -136 -9 l-77 -1 -5 35 c-9 61 -10 194 -2 233 5 20 15 41 23 46 12 6 97 -7
220 -34z m-250 12 c2 -3 1 -16 -2 -30 -5 -18 -15 -26 -38 -30 -45 -8 -236 -1
-245 8 -4 4 12 6 35 3 39 -3 42 -1 45 22 3 23 8 25 68 31 64 6 128 4 137 -4z
m342 -20 c20 -53 -18 -201 -45 -174 -20 20 -25 158 -7 190 9 16 44 6 52 -16z
m-2486 -36 c11 -10 21 -163 13 -195 -12 -50 -87 -62 -233 -40 l-33 5 0 68 c0
47 6 83 19 112 20 44 21 44 88 55 67 10 131 8 146 -5z m183 -6 c10 -25 -15
-44 -84 -65 -36 -11 -66 -19 -68 -17 -2 1 -6 21 -10 44 l-6 42 53 4 c30 2 67
4 82 5 17 1 30 -4 33 -13z m1149 5 c4 -6 -13 -10 -45 -10 -32 0 -49 4 -45 10
3 6 24 10 45 10 21 0 42 -4 45 -10z m488 -2 c14 -7 75 -12 162 -12 81 -1 143
-5 147 -11 4 -5 8 -38 8 -71 0 -74 10 -69 -178 -86 -114 -10 -135 -10 -143 3
-9 13 -4 112 8 153 3 11 1 16 -5 12 -5 -3 -12 -28 -14 -56 -3 -28 -7 -53 -10
-55 -8 -8 -361 -14 -403 -7 l-40 7 -3 62 -3 62 148 4 c81 1 183 4 226 5 45 1
88 -3 100 -10z m-486 -22 c7 -6 5 -147 -1 -153 -4 -5 -85 -7 -179 -6 l-172 1
-38 43 -38 42 47 41 46 41 167 -3 c91 -2 167 -5 168 -6z m-849 -60 l46 -44
-27 -40 c-22 -31 -37 -41 -65 -46 -20 -3 -46 -3 -58 0 -12 3 -26 -1 -33 -10
-9 -11 -19 -12 -41 -5 -33 12 -46 50 -35 105 3 19 3 43 0 54 -5 16 -10 18 -33
9 -14 -6 -38 -8 -52 -4 -20 4 -22 3 -8 -5 9 -6 31 -9 49 -8 l32 3 1 -72 1 -73
-124 0 c-108 0 -122 2 -117 16 3 9 6 35 6 59 l0 42 63 18 c34 10 70 23 81 30
12 9 58 14 143 14 l124 1 47 -44z m456 -68 c28 -32 36 -51 37 -82 2 -50 -2
-200 -5 -204 -2 -1 -25 2 -52 7 -30 6 -53 6 -58 0 -16 -14 -114 -10 -146 6
-36 19 -40 32 -44 163 -3 116 -12 105 94 117 30 4 69 12 85 20 45 20 50 19 89
-27z m-308 -4 c23 -4 40 -57 29 -87 -7 -16 -6 -16 -112 8 l-72 17 30 38 c32
40 40 41 125 24z m778 10 c22 -9 23 -84 1 -84 -18 0 -65 47 -65 65 0 24 29 33
64 19z m218 0 c26 -5 38 -13 42 -28 7 -28 -16 -236 -26 -230 -4 3 -39 -9 -79
-26 -39 -16 -84 -30 -100 -30 l-29 0 0 155 0 154 63 4 c34 2 69 4 77 5 8 1 31
-1 52 -4z m175 -24 c11 -29 10 -30 -17 -30 -15 0 -41 -3 -58 -6 -24 -5 -32 -2
-42 16 -20 37 -6 50 52 50 50 0 54 -2 65 -30z m337 -32 c3 -17 5 -32 4 -34 -2
-1 -55 -4 -118 -5 -110 -3 -115 -2 -118 18 -3 19 3 22 45 27 26 4 73 10 103
15 30 4 60 9 66 10 6 0 14 -13 18 -31z m-926 2 c25 0 32 -4 32 -20 0 -11 -3
-20 -7 -20 -5 -1 -60 -7 -123 -14 -63 -8 -118 -12 -122 -9 -5 2 -8 20 -8 40
l0 36 98 -6 c53 -4 112 -7 130 -7z m154 -15 c16 -14 36 -25 44 -25 11 0 14
-22 14 -110 l0 -110 -79 0 -78 0 -5 128 c-4 87 -2 129 6 134 23 15 69 7 98
-17z m528 -4 c0 -11 3 -22 8 -24 8 -5 -3 -245 -11 -254 -3 -2 -53 -1 -110 3
l-106 7 -6 62 c-6 52 6 190 17 201 5 5 128 21 171 23 30 1 37 -2 37 -18z
m-1361 -24 c30 -9 67 -17 83 -17 34 0 48 -28 48 -94 0 -23 5 -47 11 -53 13
-13 -29 -27 -149 -48 -74 -13 -77 -12 -129 13 -29 15 -56 35 -60 47 -13 39 -6
148 9 159 22 16 125 12 187 -7z m-232 7 c19 -5 21 -12 20 -72 0 -37 3 -77 7
-89 7 -23 6 -23 -76 -24 -46 -1 -127 -4 -180 -8 l-97 -6 -12 45 c-7 25 -18 56
-25 70 -10 22 -10 29 4 47 10 12 28 27 42 32 27 10 281 15 317 5z m2141 -27
c12 -25 11 -32 -13 -72 -21 -37 -31 -45 -54 -45 -16 0 -34 -7 -41 -15 -22 -26
-27 -17 -33 52 -6 78 2 100 40 106 61 10 87 3 101 -26z m-2540 7 c20 -3 32
-10 29 -17 -4 -14 1 -14 -104 -4 -59 6 -83 12 -83 22 0 13 69 13 158 -1z
m2385 -9 c-1 -11 2 -58 8 -103 14 -122 14 -122 -84 -119 -45 1 -132 -2 -194
-6 l-111 -9 5 119 c3 65 8 120 10 123 5 6 231 17 313 16 49 -1 55 -3 53 -21z
m-1039 -1 c3 -9 6 -56 6 -105 0 -88 0 -90 -27 -100 -15 -5 -62 -15 -105 -21
l-79 -11 -29 28 c-28 27 -30 34 -30 99 0 39 4 76 8 83 8 13 91 28 233 41 9 1
20 -5 23 -14z m1380 -54 c11 -11 14 -285 3 -297 -5 -4 -81 -8 -170 -8 l-162 0
1 70 c1 82 10 123 33 149 14 16 26 18 126 12 61 -4 126 -9 145 -12 27 -3 31
-2 15 5 -11 5 -45 10 -75 10 -30 1 -72 4 -92 7 l-37 6 27 40 26 41 75 -7 c41
-3 79 -10 85 -16z m-980 -106 c9 -8 16 -26 16 -39 0 -24 -9 -29 -90 -40 -39
-5 -47 -3 -58 15 -12 20 -9 23 50 50 35 16 64 29 65 30 1 0 9 -7 17 -16z
m-1249 -26 l45 -22 0 -132 0 -132 -152 -4 c-84 -2 -163 -2 -174 0 -32 6 -63
132 -56 229 l4 72 42 4 c22 2 87 4 143 5 87 2 109 -1 148 -20z m315 12 c10 -6
13 -23 12 -52 -4 -61 -11 -78 -31 -78 -16 0 -19 11 -23 63 -3 34 -3 65 -1 70
6 10 25 9 43 -3z m290 -42 c25 -28 25 -33 18 -111 -4 -45 -5 -101 -2 -124 7
-51 13 -50 -131 -27 -153 24 -143 20 -152 62 -9 42 -8 171 1 208 6 22 12 24
59 24 28 0 58 4 65 9 7 4 37 4 65 -2 38 -7 59 -17 77 -39z m-952 -23 c-2 -35
-7 -67 -10 -70 -3 -3 -21 2 -41 11 -33 16 -34 19 -30 58 7 63 10 66 49 66 l36
0 -4 -65z m607 32 c4 -18 5 -49 3 -67 l-3 -34 -80 -12 c-44 -6 -90 -14 -103
-18 -23 -8 -23 -7 -20 60 l3 68 84 13 c47 7 87 15 89 18 12 12 22 3 27 -28z
m846 -20 c15 -21 15 -32 -2 -152 -10 -72 -19 -131 -19 -133 0 -2 -15 0 -34 3
-18 4 -76 1 -127 -5 -92 -12 -227 -14 -261 -4 -25 8 -32 39 -31 142 3 131 2
129 79 137 36 4 84 13 107 21 24 7 91 13 157 13 108 0 116 -1 131 -22z m733
-3 l46 -7 0 -53 0 -53 -55 -6 c-30 -4 -94 -2 -142 4 -164 22 -153 18 -153 57
0 21 6 37 15 40 12 5 118 16 221 23 12 0 42 -2 68 -5z m-419 -10 l110 -7 -3
-41 c-2 -23 -22 -82 -45 -132 l-42 -91 -122 -8 c-67 -4 -145 -4 -172 0 -47 6
-50 8 -46 33 2 15 9 65 15 112 17 121 14 116 73 127 68 13 99 14 232 7z m860
-81 c-3 -8 -5 -19 -5 -24 0 -5 -7 -9 -15 -9 -8 0 -15 4 -15 9 0 21 12 38 26
38 9 0 13 -6 9 -14z m-1960 -40 c3 -27 9 -58 12 -70 6 -26 -7 -29 -169 -39
l-108 -6 0 60 c0 70 -5 67 124 87 136 21 133 22 141 -32z m1378 6 l117 -13 1
-51 c0 -27 4 -70 7 -95 l7 -44 95 2 c109 3 108 -12 -2 -23 -47 -5 -73 -3 -83
5 -8 7 -23 9 -36 5 -13 -4 -77 -9 -143 -10 -120 -3 -121 -3 -151 25 -16 15
-38 30 -48 32 -15 3 -11 15 30 96 40 79 50 92 67 89 12 -3 74 -11 139 -18z
m192 -9 c-3 -5 -21 -10 -38 -10 -24 0 -28 3 -17 10 20 13 63 13 55 0z m390
-82 c3 -44 4 -83 0 -86 -4 -4 -52 -7 -108 -7 -56 -1 -154 -2 -217 -4 l-115 -4
-9 77 c-5 42 -6 79 -2 83 4 4 91 9 194 12 103 4 201 7 218 8 l32 2 7 -81z
m-1870 -32 c22 -2 75 -9 119 -16 43 -6 85 -9 93 -6 8 3 12 2 9 -3 -10 -15 38
-31 104 -33 l65 -3 -3 -35 c-3 -52 -21 -87 -45 -94 -38 -10 -119 -7 -205 9
-54 9 -91 11 -107 5 -22 -9 -24 -7 -30 33 -3 23 -7 65 -9 92 -2 28 -2 -10 -1
-83 2 -132 2 -134 -19 -127 -11 3 -60 9 -107 12 l-86 6 -23 81 c-12 44 -24 98
-27 118 -5 35 -4 37 29 42 51 9 140 13 173 9 17 -2 48 -5 70 -7z m-666 -12
c33 -7 37 -19 20 -57 -10 -22 -15 -23 -51 -17 -57 11 -67 24 -38 55 26 28 25
27 69 19z m1724 -48 c18 -7 40 -22 50 -33 28 -32 5 -40 -121 -45 l-112 -5 -35
43 -36 43 58 4 c128 8 165 6 196 -7z m-1823 -4 c0 -18 -108 -51 -183 -55 -67
-3 -79 -2 -87 14 -6 10 -10 20 -10 23 0 3 37 6 83 7 67 1 123 6 190 18 4 0 7
-3 7 -7z m1924 -58 c26 -10 18 -24 -14 -24 -22 0 -28 4 -24 15 7 16 14 18 38
9z"/>
<path d="M2910 2991 c8 -5 33 -11 55 -14 23 -4 34 -3 25 2 -8 5 -33 11 -55 14
-23 4 -34 3 -25 -2z"/>
</g>
</svg>
